{"glyphs":{"0":{"ha":846,"x_min":42,"x_max":804,"o":"m 424 -18 q 270 21 340 -18 q 149 130 201 60 q 70 291 98 199 q 42 486 42 382 q 70 682 42 590 q 149 842 98 773 q 270 951 201 912 q 424 990 340 990 q 577 951 507 990 q 697 842 647 912 q 776 682 748 773 q 804 486 804 590 q 776 291 804 382 q 697 130 748 199 q 577 21 647 60 q 424 -18 507 -18 m 424 190 q 530 233 488 190 q 590 343 571 275 q 610 486 610 410 q 589 633 610 566 q 527 741 568 701 q 424 782 485 782 q 340 757 375 782 q 281 691 304 733 q 247 596 258 649 q 236 486 236 543 q 256 343 236 411 q 318 233 276 276 q 424 190 360 190 z "},"1":{"ha":507,"x_min":56,"x_max":396,"o":"m 188 0 l 188 764 l 56 764 l 111 972 l 396 972 l 396 0 l 188 0 z "},"2":{"ha":814,"x_min":56,"x_max":731,"o":"m 56 0 l 56 186 q 153 254 94 210 q 275 351 211 297 q 395 461 340 406 q 487 568 451 517 q 522 653 522 618 q 505 718 522 688 q 459 765 488 747 q 394 782 430 782 q 330 765 359 782 q 283 718 301 747 q 265 653 265 688 l 57 653 q 103 825 57 749 q 227 946 150 901 q 394 990 303 990 q 563 945 487 990 q 685 823 640 900 q 731 653 731 747 q 718 564 731 606 q 682 482 706 522 q 622 399 658 441 q 541 309 587 356 q 439 208 494 263 l 731 208 l 731 0 l 56 0 z "},"3":{"ha":725,"x_min":42,"x_max":683,"o":"m 363 -18 q 202 25 275 -18 q 85 141 129 68 q 42 303 42 214 l 250 303 q 265 247 250 272 q 306 206 281 221 q 363 190 332 190 q 419 206 393 190 q 460 247 444 221 q 475 303 475 272 q 451 373 475 345 q 385 415 428 401 q 285 429 342 429 l 285 588 q 405 614 361 588 q 449 692 449 640 q 436 738 449 717 q 404 771 424 758 q 358 783 383 783 q 308 771 333 783 q 266 738 283 758 q 250 692 250 717 l 42 692 q 67 808 42 753 q 136 904 92 863 q 237 968 181 945 q 356 992 294 992 q 506 951 437 992 q 616 843 574 911 q 657 692 657 775 q 636 591 657 643 q 574 517 615 539 q 634 468 610 503 q 671 389 658 433 q 683 303 683 344 q 640 142 683 215 q 524 25 597 69 q 363 -18 451 -18 z "},"4":{"ha":829,"x_min":56,"x_max":746,"o":"m 467 0 l 467 215 l 56 215 l 56 424 l 419 972 l 675 972 l 675 424 l 746 424 l 746 215 l 675 215 l 675 0 l 467 0 m 296 424 l 467 424 l 467 692 l 296 424 z "},"5":{"ha":814,"x_min":49,"x_max":731,"o":"m 390 -18 q 216 29 294 -18 q 94 153 139 76 q 49 322 49 231 l 257 322 q 275 256 257 285 q 323 208 293 226 q 390 190 353 190 q 456 208 426 190 q 504 256 486 226 q 522 322 522 285 q 508 390 522 359 q 457 440 494 421 q 350 458 419 458 l 93 458 l 201 972 l 692 972 l 692 764 l 371 764 l 350 667 l 394 665 q 569 615 493 661 q 688 492 644 568 q 731 322 731 415 q 704 191 731 253 q 631 82 678 129 q 523 9 585 35 q 390 -18 461 -18 z "},"6":{"ha":771,"x_min":35,"x_max":729,"o":"m 381 -18 q 208 29 286 -18 q 82 155 129 76 q 35 329 35 233 q 46 418 35 374 q 81 503 57 463 l 351 972 l 593 972 l 421 675 q 520 648 474 669 q 606 595 567 628 q 672 522 644 563 q 714 431 699 480 q 729 329 729 383 q 702 195 729 258 q 627 84 675 132 q 516 9 579 36 q 381 -18 453 -18 m 381 190 q 452 210 421 190 q 502 261 484 230 q 521 328 521 293 q 503 398 521 366 q 453 449 485 430 q 382 468 422 468 q 309 448 340 468 q 260 396 278 428 q 243 328 243 364 q 263 257 243 288 q 314 208 283 226 q 381 190 345 190 z "},"7":{"ha":775,"x_min":28,"x_max":747,"o":"m 65 0 l 506 764 l 28 764 l 28 972 l 747 972 l 747 764 l 306 0 l 65 0 z "},"8":{"ha":771,"x_min":56,"x_max":715,"o":"m 385 -18 q 218 24 293 -18 q 100 137 144 66 q 56 296 56 208 q 79 412 56 356 q 144 511 102 467 q 94 597 113 550 q 75 696 75 644 q 117 844 75 777 q 229 951 159 911 q 385 990 299 990 q 540 951 470 990 q 652 844 610 911 q 694 696 694 777 q 676 597 694 644 q 625 511 658 550 q 692 412 669 467 q 715 296 715 356 q 671 138 715 209 q 551 24 626 67 q 385 -18 476 -18 m 385 190 q 441 205 415 190 q 481 243 466 219 q 496 296 496 267 q 481 349 496 325 q 441 387 466 373 q 385 401 415 401 q 329 387 354 401 q 289 349 303 373 q 274 296 274 325 q 289 243 274 267 q 329 205 303 219 q 385 190 354 190 m 385 610 q 430 622 410 610 q 463 653 451 633 q 475 696 475 672 q 463 739 475 719 q 430 770 451 758 q 385 782 410 782 q 339 770 360 782 q 307 739 319 758 q 294 696 294 719 q 307 653 294 672 q 339 622 319 633 q 385 610 360 610 z "},"9":{"ha":778,"x_min":42,"x_max":736,"o":"m 178 0 l 350 297 q 228 335 284 305 q 130 411 172 365 q 65 517 88 458 q 42 643 42 576 q 69 777 42 715 q 144 888 96 840 q 255 963 192 936 q 390 990 318 990 q 563 943 485 990 q 689 818 642 897 q 736 643 736 739 q 725 555 736 599 q 690 469 715 510 l 419 0 l 178 0 m 389 504 q 462 524 431 504 q 510 576 493 544 q 528 644 528 608 q 508 715 528 684 q 457 764 489 747 q 390 782 426 782 q 318 762 350 782 q 268 711 287 742 q 250 644 250 679 q 268 574 250 606 q 318 523 287 542 q 389 504 349 504 z "},"A":{"ha":1051,"x_min":56,"x_max":996,"o":"m 408 972 l 643 972 l 996 0 l 775 0 l 719 153 l 332 153 l 276 0 l 56 0 l 408 972 m 408 361 l 643 361 l 525 683 l 408 361 z "},"Á":{"ha":1051,"x_min":56,"x_max":996,"o":"m 408 972 l 643 972 l 996 0 l 775 0 l 719 153 l 332 153 l 276 0 l 56 0 l 408 972 m 408 361 l 643 361 l 525 683 l 408 361 m 490 1068 l 546 1268 l 754 1268 l 601 1068 l 490 1068 z "},"Â":{"ha":1051,"x_min":56,"x_max":996,"o":"m 408 972 l 643 972 l 996 0 l 775 0 l 719 153 l 332 153 l 276 0 l 56 0 l 408 972 m 408 361 l 643 361 l 525 683 l 408 361 m 421 1250 l 631 1250 l 700 1088 l 567 1088 l 526 1186 l 485 1088 l 351 1088 l 421 1250 z "},"Ä":{"ha":1051,"x_min":56,"x_max":996,"o":"m 408 972 l 643 972 l 996 0 l 775 0 l 719 153 l 332 153 l 276 0 l 56 0 l 408 972 m 408 361 l 643 361 l 525 683 l 408 361 m 374 1058 q 299 1088 329 1058 q 268 1163 268 1118 q 299 1236 268 1206 q 374 1267 329 1267 q 448 1236 417 1267 q 478 1163 478 1206 q 448 1088 478 1118 q 374 1058 417 1058 m 679 1058 q 604 1088 635 1058 q 574 1163 574 1118 q 604 1236 574 1206 q 679 1267 635 1267 q 753 1236 723 1267 q 783 1163 783 1206 q 753 1088 783 1118 q 679 1058 723 1058 z "},"À":{"ha":1051,"x_min":56,"x_max":996,"o":"m 408 972 l 643 972 l 996 0 l 775 0 l 719 153 l 332 153 l 276 0 l 56 0 l 408 972 m 408 361 l 643 361 l 525 683 l 408 361 m 319 1268 l 527 1268 l 583 1068 l 472 1068 l 319 1268 z "},"Å":{"ha":1051,"x_min":56,"x_max":996,"o":"m 408 972 l 643 972 l 996 0 l 775 0 l 719 153 l 332 153 l 276 0 l 56 0 l 408 972 m 408 361 l 643 361 l 525 683 l 408 361 m 526 1029 q 428 1071 469 1029 q 387 1169 387 1113 q 406 1238 387 1207 q 456 1288 424 1269 q 526 1307 488 1307 q 624 1266 583 1307 q 665 1169 665 1226 q 624 1070 665 1111 q 526 1029 583 1029 m 526 1106 q 570 1124 552 1106 q 588 1169 588 1142 q 570 1213 588 1194 q 526 1231 552 1231 q 482 1213 500 1231 q 463 1169 463 1194 q 482 1124 463 1142 q 526 1106 500 1106 z "},"Ã":{"ha":1051,"x_min":56,"x_max":996,"o":"m 408 972 l 643 972 l 996 0 l 775 0 l 719 153 l 332 153 l 276 0 l 56 0 l 408 972 m 408 361 l 643 361 l 525 683 l 408 361 m 634 1040 q 570 1059 608 1040 q 497 1100 533 1078 q 435 1136 460 1123 q 405 1137 409 1149 q 403 1113 401 1124 q 412 1080 406 1101 l 295 1048 q 282 1159 274 1110 q 326 1237 291 1208 q 417 1266 360 1266 q 476 1251 442 1266 q 544 1217 510 1236 q 603 1182 578 1197 q 635 1167 628 1167 q 650 1176 649 1167 q 648 1197 652 1184 q 638 1223 643 1210 l 758 1262 q 769 1147 779 1197 q 723 1068 758 1097 q 634 1040 688 1040 z "},"Æ":{"ha":1188,"x_min":56,"x_max":1118,"o":"m 56 0 l 408 972 l 1118 972 l 1118 764 l 804 764 l 804 590 l 1051 590 l 1051 382 l 804 382 l 804 208 l 1118 208 l 1118 0 l 596 0 l 596 153 l 332 153 l 276 0 l 56 0 m 408 361 l 596 361 l 596 764 l 554 764 l 408 361 z "},"B":{"ha":838,"x_min":83,"x_max":782,"o":"m 83 0 l 83 972 l 451 972 q 596 939 531 972 q 698 846 660 906 q 736 704 736 785 q 728 640 736 674 q 701 577 721 606 q 646 531 682 548 q 719 490 692 520 q 760 419 747 459 q 778 339 774 379 q 782 265 782 298 q 742 132 782 192 q 636 36 703 72 q 489 0 569 0 l 83 0 m 292 176 l 467 176 q 532 193 503 176 q 580 240 562 210 q 597 308 597 270 q 580 369 597 340 q 532 416 562 398 q 467 434 503 434 l 292 434 l 292 176 m 292 608 l 426 608 q 498 635 468 608 q 528 706 528 663 q 498 772 528 749 q 426 794 468 794 l 292 794 l 292 608 z "},"C":{"ha":971,"x_min":42,"x_max":901,"o":"m 519 -18 q 334 21 421 -18 q 182 130 247 60 q 79 291 116 199 q 42 486 42 382 q 79 682 42 591 q 182 843 116 774 q 334 951 247 912 q 519 990 421 990 q 737 936 638 990 q 901 790 836 881 l 715 690 q 628 757 679 732 q 519 782 578 782 q 415 759 464 782 q 329 695 366 736 q 271 601 292 655 q 250 486 250 548 q 271 372 250 425 q 329 277 292 318 q 415 214 366 237 q 519 190 464 190 q 628 216 578 190 q 715 283 679 241 l 901 182 q 737 37 836 92 q 519 -18 638 -18 z "},"Ç":{"ha":971,"x_min":42,"x_max":901,"o":"m 519 -18 q 334 21 421 -18 q 182 130 247 60 q 79 291 116 199 q 42 486 42 382 q 79 682 42 591 q 182 843 116 774 q 334 951 247 912 q 519 990 421 990 q 737 936 638 990 q 901 790 836 881 l 715 690 q 628 757 679 732 q 519 782 578 782 q 415 759 464 782 q 329 695 366 736 q 271 601 292 655 q 250 486 250 548 q 271 372 250 425 q 329 277 292 318 q 415 214 366 237 q 519 190 464 190 q 628 216 578 190 q 715 283 679 241 l 901 182 q 737 37 836 92 q 519 -18 638 -18 m 308 -212 l 308 -61 l 397 -61 q 451 -44 425 -61 q 494 -1 477 -27 q 511 51 511 24 l 511 140 l 663 140 l 663 54 q 626 -80 663 -19 q 530 -176 590 -140 q 394 -212 469 -212 l 308 -212 z "},"D":{"ha":933,"x_min":83,"x_max":892,"o":"m 83 0 l 83 972 l 406 972 q 594 934 506 972 q 749 830 682 897 q 854 675 816 763 q 892 486 892 587 q 854 298 892 385 q 749 143 816 210 q 594 38 682 76 q 406 0 506 0 l 83 0 m 292 208 l 406 208 q 512 230 462 208 q 601 290 562 251 q 661 378 640 328 q 683 486 683 428 q 661 594 683 544 q 601 682 640 644 q 513 742 563 721 q 406 764 463 764 l 292 764 l 292 208 z "},"Ð":{"ha":1015,"x_min":69,"x_max":974,"o":"m 167 0 l 167 417 l 69 417 l 69 625 l 167 625 l 167 972 l 488 972 q 676 934 588 972 q 831 830 764 897 q 936 675 898 763 q 974 486 974 587 q 936 298 974 385 q 831 143 898 210 q 676 38 764 76 q 488 0 588 0 l 167 0 m 375 208 l 488 208 q 595 230 545 208 q 684 290 645 251 q 744 379 722 328 q 765 486 765 429 q 744 594 765 544 q 684 682 722 644 q 595 742 645 721 q 488 764 545 764 l 375 764 l 375 625 l 540 625 l 540 417 l 375 417 l 375 208 z "},"E":{"ha":772,"x_min":83,"x_max":703,"o":"m 83 0 l 83 972 l 703 972 l 703 764 l 292 764 l 292 625 l 608 625 l 608 417 l 292 417 l 292 208 l 703 208 l 703 0 l 83 0 z "},"É":{"ha":772,"x_min":83,"x_max":703,"o":"m 83 0 l 83 972 l 703 972 l 703 764 l 292 764 l 292 625 l 608 625 l 608 417 l 292 417 l 292 208 l 703 208 l 703 0 l 83 0 m 351 1068 l 406 1268 l 615 1268 l 462 1068 l 351 1068 z "},"Ê":{"ha":772,"x_min":83,"x_max":703,"o":"m 83 0 l 83 972 l 703 972 l 703 764 l 292 764 l 292 625 l 608 625 l 608 417 l 292 417 l 292 208 l 703 208 l 703 0 l 83 0 m 281 1250 l 491 1250 l 560 1088 l 427 1088 l 387 1186 l 345 1088 l 212 1088 l 281 1250 z "},"Ë":{"ha":772,"x_min":83,"x_max":703,"o":"m 83 0 l 83 972 l 703 972 l 703 764 l 292 764 l 292 625 l 608 625 l 608 417 l 292 417 l 292 208 l 703 208 l 703 0 l 83 0 m 234 1058 q 159 1088 190 1058 q 128 1163 128 1118 q 159 1236 128 1206 q 234 1267 190 1267 q 308 1236 278 1267 q 338 1163 338 1206 q 308 1088 338 1118 q 234 1058 278 1058 m 540 1058 q 465 1088 495 1058 q 434 1163 434 1118 q 465 1236 434 1206 q 540 1267 495 1267 q 614 1236 583 1267 q 644 1163 644 1206 q 614 1088 644 1118 q 540 1058 583 1058 z "},"È":{"ha":772,"x_min":83,"x_max":703,"o":"m 83 0 l 83 972 l 703 972 l 703 764 l 292 764 l 292 625 l 608 625 l 608 417 l 292 417 l 292 208 l 703 208 l 703 0 l 83 0 m 179 1268 l 388 1268 l 443 1068 l 332 1068 l 179 1268 z "},"F":{"ha":675,"x_min":83,"x_max":661,"o":"m 83 0 l 83 972 l 661 972 l 661 764 l 292 764 l 292 625 l 594 625 l 594 417 l 292 417 l 292 0 l 83 0 z "},"G":{"ha":1040,"x_min":42,"x_max":1003,"o":"m 519 -18 q 330 22 417 -18 q 178 131 243 61 q 78 292 114 201 q 42 488 42 384 q 82 691 42 599 q 190 850 122 783 q 345 953 258 917 q 524 989 431 989 q 724 942 625 989 q 901 789 822 894 l 715 689 q 623 759 673 737 q 521 782 572 782 q 420 760 469 782 q 333 699 372 739 q 273 605 295 660 q 250 483 250 550 q 271 369 250 422 q 330 275 292 315 q 417 213 367 235 q 522 190 466 190 q 586 199 554 190 q 647 225 617 208 q 703 269 677 242 q 751 333 730 297 l 621 333 l 621 514 l 997 514 q 968 309 1003 405 q 867 139 933 213 q 712 24 801 65 q 519 -18 623 -18 z "},"H":{"ha":928,"x_min":83,"x_max":844,"o":"m 636 972 l 844 972 l 844 0 l 636 0 l 636 417 l 292 417 l 292 0 l 83 0 l 83 972 l 292 972 l 292 625 l 636 625 l 636 972 z "},"I":{"ha":417,"x_min":104,"x_max":313,"o":"m 104 0 l 104 972 l 313 972 l 313 0 l 104 0 z "},"Í":{"ha":417,"x_min":104,"x_max":437,"o":"m 104 0 l 104 972 l 313 972 l 313 0 l 104 0 m 173 1068 l 228 1268 l 437 1268 l 284 1068 l 173 1068 z "},"Î":{"ha":417,"x_min":34,"x_max":383,"o":"m 104 0 l 104 972 l 313 972 l 313 0 l 104 0 m 103 1250 l 313 1250 l 383 1088 l 249 1088 l 209 1186 l 167 1088 l 34 1088 l 103 1250 z "},"Ï":{"ha":417,"x_min":-49,"x_max":466,"o":"m 104 0 l 104 972 l 313 972 l 313 0 l 104 0 m 56 1058 q -19 1088 12 1058 q -49 1163 -49 1118 q -19 1236 -49 1206 q 56 1267 12 1267 q 130 1236 100 1267 q 160 1163 160 1206 q 130 1088 160 1118 q 56 1058 100 1058 m 362 1058 q 287 1088 317 1058 q 256 1163 256 1118 q 287 1236 256 1206 q 362 1267 317 1267 q 436 1236 406 1267 q 466 1163 466 1206 q 436 1088 466 1118 q 362 1058 406 1058 z "},"Ì":{"ha":417,"x_min":1,"x_max":313,"o":"m 104 0 l 104 972 l 313 972 l 313 0 l 104 0 m 1 1268 l 210 1268 l 265 1068 l 154 1068 l 1 1268 z "},"J":{"ha":649,"x_min":28,"x_max":565,"o":"m 238 -18 q 126 1 181 -18 q 28 58 72 21 l 161 218 q 192 200 173 209 q 238 190 210 190 q 297 207 270 190 q 341 250 324 223 q 357 310 357 277 l 357 972 l 565 972 l 565 310 q 521 145 565 219 q 402 26 476 71 q 238 -18 328 -18 z "},"K":{"ha":854,"x_min":83,"x_max":840,"o":"m 840 0 l 568 0 l 319 351 l 292 318 l 292 0 l 83 0 l 83 972 l 292 972 l 292 642 l 568 972 l 840 972 l 456 514 l 840 0 z "},"L":{"ha":743,"x_min":83,"x_max":674,"o":"m 83 0 l 83 972 l 292 972 l 292 208 l 674 208 l 674 0 l 83 0 z "},"M":{"ha":1336,"x_min":83,"x_max":1253,"o":"m 83 0 l 272 972 l 450 972 l 668 399 l 886 972 l 1064 972 l 1253 0 l 1040 0 l 939 525 l 740 0 l 596 0 l 397 525 l 296 0 l 83 0 z "},"N":{"ha":956,"x_min":83,"x_max":872,"o":"m 83 0 l 83 972 l 308 972 l 664 376 l 664 972 l 872 972 l 872 0 l 647 0 l 292 596 l 292 0 l 83 0 z "},"Ñ":{"ha":956,"x_min":83,"x_max":872,"o":"m 83 0 l 83 972 l 308 972 l 664 376 l 664 972 l 872 972 l 872 0 l 647 0 l 292 596 l 292 0 l 83 0 m 586 1040 q 523 1059 560 1040 q 449 1100 485 1078 q 387 1136 413 1123 q 357 1137 361 1149 q 355 1113 353 1124 q 364 1080 358 1101 l 247 1048 q 234 1159 226 1110 q 278 1237 243 1208 q 369 1266 313 1266 q 428 1251 394 1266 q 496 1217 463 1236 q 555 1182 530 1197 q 588 1167 581 1167 q 602 1176 601 1167 q 600 1197 604 1184 q 590 1223 595 1210 l 710 1262 q 721 1147 731 1197 q 675 1068 710 1097 q 586 1040 640 1040 z "},"O":{"ha":1069,"x_min":56,"x_max":1014,"o":"m 535 -18 q 349 21 436 -18 q 197 130 263 60 q 93 291 131 199 q 56 486 56 382 q 93 682 56 590 q 197 842 131 773 q 349 951 263 912 q 535 990 436 990 q 721 951 634 990 q 874 842 808 912 q 977 682 940 773 q 1014 486 1014 590 q 977 291 1014 382 q 874 130 940 199 q 721 21 808 60 q 535 -18 634 -18 m 535 190 q 639 214 590 190 q 726 277 688 237 q 784 372 763 318 q 806 486 806 425 q 784 601 806 547 q 726 695 763 654 q 639 759 688 735 q 535 782 590 782 q 430 759 479 782 q 344 695 381 735 q 285 601 306 654 q 264 486 264 547 q 285 372 264 425 q 344 277 306 318 q 430 214 381 237 q 535 190 479 190 z "},"Ó":{"ha":1069,"x_min":56,"x_max":1014,"o":"m 535 -18 q 349 21 436 -18 q 197 130 263 60 q 93 291 131 199 q 56 486 56 382 q 93 682 56 590 q 197 842 131 773 q 349 951 263 912 q 535 990 436 990 q 721 951 634 990 q 874 842 808 912 q 977 682 940 773 q 1014 486 1014 590 q 977 291 1014 382 q 874 130 940 199 q 721 21 808 60 q 535 -18 634 -18 m 535 190 q 639 214 590 190 q 726 277 688 237 q 784 372 763 318 q 806 486 806 425 q 784 601 806 547 q 726 695 763 654 q 639 759 688 735 q 535 782 590 782 q 430 759 479 782 q 344 695 381 735 q 285 601 306 654 q 264 486 264 547 q 285 372 264 425 q 344 277 306 318 q 430 214 381 237 q 535 190 479 190 m 499 1068 l 555 1268 l 763 1268 l 610 1068 l 499 1068 z "},"Ô":{"ha":1069,"x_min":56,"x_max":1014,"o":"m 535 -18 q 349 21 436 -18 q 197 130 263 60 q 93 291 131 199 q 56 486 56 382 q 93 682 56 590 q 197 842 131 773 q 349 951 263 912 q 535 990 436 990 q 721 951 634 990 q 874 842 808 912 q 977 682 940 773 q 1014 486 1014 590 q 977 291 1014 382 q 874 130 940 199 q 721 21 808 60 q 535 -18 634 -18 m 535 190 q 639 214 590 190 q 726 277 688 237 q 784 372 763 318 q 806 486 806 425 q 784 601 806 547 q 726 695 763 654 q 639 759 688 735 q 535 782 590 782 q 430 759 479 782 q 344 695 381 735 q 285 601 306 654 q 264 486 264 547 q 285 372 264 425 q 344 277 306 318 q 430 214 381 237 q 535 190 479 190 m 430 1250 l 640 1250 l 709 1088 l 576 1088 l 535 1186 l 494 1088 l 360 1088 l 430 1250 z "},"Ö":{"ha":1069,"x_min":56,"x_max":1014,"o":"m 535 -18 q 349 21 436 -18 q 197 130 263 60 q 93 291 131 199 q 56 486 56 382 q 93 682 56 590 q 197 842 131 773 q 349 951 263 912 q 535 990 436 990 q 721 951 634 990 q 874 842 808 912 q 977 682 940 773 q 1014 486 1014 590 q 977 291 1014 382 q 874 130 940 199 q 721 21 808 60 q 535 -18 634 -18 m 535 190 q 639 214 590 190 q 726 277 688 237 q 784 372 763 318 q 806 486 806 425 q 784 601 806 547 q 726 695 763 654 q 639 759 688 735 q 535 782 590 782 q 430 759 479 782 q 344 695 381 735 q 285 601 306 654 q 264 486 264 547 q 285 372 264 425 q 344 277 306 318 q 430 214 381 237 q 535 190 479 190 m 383 1058 q 308 1088 338 1058 q 277 1163 277 1118 q 308 1236 277 1206 q 383 1267 338 1267 q 457 1236 426 1267 q 487 1163 487 1206 q 457 1088 487 1118 q 383 1058 426 1058 m 688 1058 q 613 1088 644 1058 q 583 1163 583 1118 q 613 1236 583 1206 q 688 1267 644 1267 q 762 1236 732 1267 q 792 1163 792 1206 q 762 1088 792 1118 q 688 1058 732 1058 z "},"Ò":{"ha":1069,"x_min":56,"x_max":1014,"o":"m 535 -18 q 349 21 436 -18 q 197 130 263 60 q 93 291 131 199 q 56 486 56 382 q 93 682 56 590 q 197 842 131 773 q 349 951 263 912 q 535 990 436 990 q 721 951 634 990 q 874 842 808 912 q 977 682 940 773 q 1014 486 1014 590 q 977 291 1014 382 q 874 130 940 199 q 721 21 808 60 q 535 -18 634 -18 m 535 190 q 639 214 590 190 q 726 277 688 237 q 784 372 763 318 q 806 486 806 425 q 784 601 806 547 q 726 695 763 654 q 639 759 688 735 q 535 782 590 782 q 430 759 479 782 q 344 695 381 735 q 285 601 306 654 q 264 486 264 547 q 285 372 264 425 q 344 277 306 318 q 430 214 381 237 q 535 190 479 190 m 328 1268 l 536 1268 l 592 1068 l 481 1068 l 328 1268 z "},"Ø":{"ha":1069,"x_min":56,"x_max":1014,"o":"m 326 -85 l 146 19 l 204 122 q 96 285 137 191 q 56 486 56 379 q 93 682 56 590 q 197 842 131 773 q 349 951 263 912 q 535 990 436 990 q 615 983 576 990 q 690 964 654 976 l 744 1057 l 925 953 l 865 851 q 974 688 934 782 q 1014 486 1014 594 q 977 291 1014 382 q 874 130 940 199 q 721 21 808 60 q 535 -18 634 -18 q 456 -11 494 -18 q 381 10 417 -3 l 326 -85 m 315 314 l 583 778 q 560 781 572 780 q 535 782 547 782 q 430 759 479 782 q 344 695 381 735 q 285 601 306 654 q 264 486 264 547 q 278 394 264 438 q 315 314 292 351 m 535 190 q 639 214 590 190 q 726 277 688 237 q 784 372 763 318 q 806 486 806 425 q 793 578 806 534 q 756 658 780 622 l 488 196 q 511 192 499 193 q 535 190 524 190 z "},"Õ":{"ha":1069,"x_min":56,"x_max":1014,"o":"m 535 -18 q 349 21 436 -18 q 197 130 263 60 q 93 291 131 199 q 56 486 56 382 q 93 682 56 590 q 197 842 131 773 q 349 951 263 912 q 535 990 436 990 q 721 951 634 990 q 874 842 808 912 q 977 682 940 773 q 1014 486 1014 590 q 977 291 1014 382 q 874 130 940 199 q 721 21 808 60 q 535 -18 634 -18 m 535 190 q 639 214 590 190 q 726 277 688 237 q 784 372 763 318 q 806 486 806 425 q 784 601 806 547 q 726 695 763 654 q 639 759 688 735 q 535 782 590 782 q 430 759 479 782 q 344 695 381 735 q 285 601 306 654 q 264 486 264 547 q 285 372 264 425 q 344 277 306 318 q 430 214 381 237 q 535 190 479 190 m 643 1040 q 580 1059 617 1040 q 506 1100 542 1078 q 444 1136 469 1123 q 414 1137 418 1149 q 412 1113 410 1124 q 421 1080 415 1101 l 304 1048 q 291 1159 283 1110 q 335 1237 300 1208 q 426 1266 369 1266 q 485 1251 451 1266 q 553 1217 519 1236 q 612 1182 587 1197 q 644 1167 638 1167 q 659 1176 658 1167 q 657 1197 661 1184 q 647 1223 652 1210 l 767 1262 q 778 1147 788 1197 q 732 1068 767 1097 q 643 1040 697 1040 z "},"Œ":{"ha":1456,"x_min":56,"x_max":1386,"o":"m 535 -18 q 349 21 436 -18 q 197 130 263 60 q 93 291 131 199 q 56 486 56 382 q 93 682 56 590 q 197 842 131 773 q 349 951 263 912 q 535 990 436 990 q 633 980 585 990 q 725 949 681 969 q 808 900 769 928 l 808 972 l 1386 972 l 1386 764 l 1017 764 l 1017 590 l 1319 590 l 1319 382 l 1017 382 l 1017 208 l 1386 208 l 1386 0 l 808 0 l 808 72 q 725 24 769 44 q 633 -7 681 3 q 535 -18 585 -18 m 535 190 q 639 214 590 190 q 726 277 688 237 q 784 372 763 318 q 806 486 806 425 q 784 601 806 547 q 726 695 763 654 q 639 759 688 735 q 535 782 590 782 q 430 759 479 782 q 344 695 381 735 q 285 601 306 654 q 264 486 264 547 q 285 372 264 425 q 344 277 306 318 q 430 214 381 237 q 535 190 479 190 z "},"P":{"ha":792,"x_min":83,"x_max":736,"o":"m 83 0 l 83 972 l 450 972 q 595 932 530 972 q 698 823 660 891 q 736 675 736 756 q 697 526 736 593 q 592 418 658 458 q 450 378 527 378 l 292 378 l 292 0 l 83 0 m 292 586 l 426 586 q 477 600 454 586 q 514 638 500 615 q 528 690 528 662 q 514 742 528 719 q 477 780 500 766 q 426 794 454 794 l 292 794 l 292 586 z "},"Þ":{"ha":792,"x_min":83,"x_max":736,"o":"m 83 0 l 83 972 l 292 972 l 292 783 l 450 783 q 595 743 530 783 q 698 634 660 702 q 736 486 736 567 q 697 337 736 404 q 592 229 658 269 q 450 189 527 189 l 292 189 l 292 0 l 83 0 m 292 397 l 426 397 q 477 411 454 397 q 514 449 500 426 q 528 501 528 473 q 514 553 528 530 q 477 591 500 577 q 426 606 454 606 l 292 606 l 292 397 z "},"Q":{"ha":1100,"x_min":56,"x_max":1044,"o":"m 897 -36 l 793 67 q 673 8 738 29 q 535 -12 607 -12 q 349 27 436 -12 q 197 135 263 66 q 93 295 131 204 q 56 492 56 387 q 93 687 56 596 q 197 848 131 778 q 349 957 263 917 q 535 996 436 996 q 721 957 634 996 q 874 848 808 917 q 977 687 940 778 q 1014 492 1014 596 q 993 347 1014 416 q 938 218 973 278 l 1044 111 l 897 -36 m 535 196 q 590 202 563 196 q 642 219 617 208 l 583 278 l 731 425 l 782 374 q 800 431 794 401 q 806 492 806 460 q 784 606 806 553 q 726 700 763 660 q 639 764 688 741 q 535 788 590 788 q 430 764 479 788 q 344 700 381 741 q 285 606 306 660 q 264 492 264 553 q 285 377 264 431 q 344 282 306 323 q 430 219 381 242 q 535 196 479 196 z "},"R":{"ha":879,"x_min":83,"x_max":824,"o":"m 83 0 l 83 972 l 479 972 q 624 932 559 972 q 726 824 688 892 q 764 675 764 756 q 743 559 764 613 q 684 464 722 505 q 593 397 645 422 l 824 0 l 583 0 l 364 378 l 292 378 l 292 0 l 83 0 m 292 586 l 454 586 q 505 600 482 586 q 542 638 528 615 q 556 690 556 662 q 542 742 556 719 q 505 780 528 766 q 454 794 482 794 l 292 794 l 292 586 z "},"S":{"ha":878,"x_min":69,"x_max":808,"o":"m 439 -18 q 282 8 357 -18 q 151 83 207 34 q 69 200 94 132 l 265 272 q 296 233 272 252 q 357 202 320 215 q 439 190 394 190 q 517 202 481 190 q 577 236 554 215 q 600 286 600 258 q 576 334 600 315 q 515 365 552 353 q 439 382 478 376 q 250 432 333 397 q 118 529 166 467 q 69 686 69 591 q 121 845 69 777 q 257 952 172 914 q 439 990 341 990 q 596 964 521 990 q 728 889 672 938 q 808 771 784 840 l 613 700 q 582 739 606 720 q 521 769 558 757 q 439 781 484 781 q 362 769 399 781 q 301 735 325 756 q 278 686 278 713 q 300 630 278 649 q 359 604 322 612 q 439 590 395 597 q 623 538 539 576 q 758 438 707 501 q 808 286 808 376 q 757 127 808 195 q 622 20 706 58 q 439 -18 538 -18 z "},"ẞ":{"ha":865,"x_min":83,"x_max":824,"o":"m 83 0 l 83 604 q 112 747 83 681 q 191 864 141 814 q 309 943 242 915 q 451 972 376 972 q 589 941 524 972 q 694 857 653 909 q 735 742 735 804 q 716 678 735 708 q 662 609 697 648 q 578 510 627 569 q 668 503 624 519 q 747 453 712 487 q 803 378 782 420 q 824 293 824 336 q 794 168 824 222 q 717 76 765 113 q 609 19 668 38 q 489 0 549 0 l 451 0 l 410 176 l 467 176 q 543 187 503 176 q 611 223 583 197 q 639 294 639 249 q 611 366 639 340 q 543 402 583 392 q 467 413 503 413 l 410 413 l 410 489 q 422 554 410 521 q 451 619 433 588 q 485 676 468 650 q 515 720 503 702 q 526 746 526 739 q 510 782 526 772 q 468 793 494 792 q 413 794 442 794 q 355 776 383 794 q 309 728 327 758 q 292 660 292 697 l 292 0 l 83 0 z "},"T":{"ha":875,"x_min":56,"x_max":819,"o":"m 819 972 l 819 764 l 542 764 l 542 0 l 333 0 l 333 764 l 56 764 l 56 972 l 819 972 z "},"U":{"ha":957,"x_min":83,"x_max":874,"o":"m 479 -18 q 273 39 363 -18 q 134 192 184 96 q 83 406 83 288 l 83 972 l 292 972 l 292 406 q 314 298 292 347 q 378 219 336 249 q 479 190 420 190 q 581 219 539 190 q 644 297 622 248 q 665 406 665 346 l 665 972 l 874 972 l 874 406 q 845 241 874 317 q 764 106 817 164 q 639 15 711 47 q 479 -18 567 -18 z "},"Ú":{"ha":957,"x_min":83,"x_max":874,"o":"m 479 -18 q 273 39 363 -18 q 134 192 184 96 q 83 406 83 288 l 83 972 l 292 972 l 292 406 q 314 298 292 347 q 378 219 336 249 q 479 190 420 190 q 581 219 539 190 q 644 297 622 248 q 665 406 665 346 l 665 972 l 874 972 l 874 406 q 845 241 874 317 q 764 106 817 164 q 639 15 711 47 q 479 -18 567 -18 m 443 1068 l 499 1268 l 707 1268 l 554 1068 l 443 1068 z "},"Û":{"ha":957,"x_min":83,"x_max":874,"o":"m 479 -18 q 273 39 363 -18 q 134 192 184 96 q 83 406 83 288 l 83 972 l 292 972 l 292 406 q 314 298 292 347 q 378 219 336 249 q 479 190 420 190 q 581 219 539 190 q 644 297 622 248 q 665 406 665 346 l 665 972 l 874 972 l 874 406 q 845 241 874 317 q 764 106 817 164 q 639 15 711 47 q 479 -18 567 -18 m 374 1250 l 583 1250 l 653 1088 l 519 1088 l 479 1186 l 438 1088 l 304 1088 l 374 1250 z "},"Ü":{"ha":957,"x_min":83,"x_max":874,"o":"m 479 -18 q 273 39 363 -18 q 134 192 184 96 q 83 406 83 288 l 83 972 l 292 972 l 292 406 q 314 298 292 347 q 378 219 336 249 q 479 190 420 190 q 581 219 539 190 q 644 297 622 248 q 665 406 665 346 l 665 972 l 874 972 l 874 406 q 845 241 874 317 q 764 106 817 164 q 639 15 711 47 q 479 -18 567 -18 m 326 1058 q 251 1088 282 1058 q 221 1163 221 1118 q 251 1236 221 1206 q 326 1267 282 1267 q 400 1236 370 1267 q 431 1163 431 1206 q 400 1088 431 1118 q 326 1058 370 1058 m 632 1058 q 557 1088 588 1058 q 526 1163 526 1118 q 557 1236 526 1206 q 632 1267 588 1267 q 706 1236 676 1267 q 736 1163 736 1206 q 706 1088 736 1118 q 632 1058 676 1058 z "},"Ù":{"ha":957,"x_min":83,"x_max":874,"o":"m 479 -18 q 273 39 363 -18 q 134 192 184 96 q 83 406 83 288 l 83 972 l 292 972 l 292 406 q 314 298 292 347 q 378 219 336 249 q 479 190 420 190 q 581 219 539 190 q 644 297 622 248 q 665 406 665 346 l 665 972 l 874 972 l 874 406 q 845 241 874 317 q 764 106 817 164 q 639 15 711 47 q 479 -18 567 -18 m 272 1268 l 480 1268 l 535 1068 l 424 1068 l 272 1268 z "},"V":{"ha":1003,"x_min":14,"x_max":989,"o":"m 367 0 l 14 972 l 235 972 l 501 239 l 768 972 l 989 972 l 636 0 l 367 0 z "},"W":{"ha":1361,"x_min":69,"x_max":1292,"o":"m 318 0 l 69 972 l 285 972 l 435 383 l 585 972 l 776 972 l 926 383 l 1076 972 l 1292 972 l 1044 0 l 810 0 l 681 504 l 553 0 l 318 0 z "},"Ẃ":{"ha":1361,"x_min":69,"x_max":1292,"o":"m 318 0 l 69 972 l 285 972 l 435 383 l 585 972 l 776 972 l 926 383 l 1076 972 l 1292 972 l 1044 0 l 810 0 l 681 504 l 553 0 l 318 0 m 645 1068 l 701 1268 l 909 1268 l 756 1068 l 645 1068 z "},"Ŵ":{"ha":1361,"x_min":69,"x_max":1292,"o":"m 318 0 l 69 972 l 285 972 l 435 383 l 585 972 l 776 972 l 926 383 l 1076 972 l 1292 972 l 1044 0 l 810 0 l 681 504 l 553 0 l 318 0 m 576 1250 l 785 1250 l 855 1088 l 722 1088 l 681 1186 l 640 1088 l 506 1088 l 576 1250 z "},"Ẅ":{"ha":1361,"x_min":69,"x_max":1292,"o":"m 318 0 l 69 972 l 285 972 l 435 383 l 585 972 l 776 972 l 926 383 l 1076 972 l 1292 972 l 1044 0 l 810 0 l 681 504 l 553 0 l 318 0 m 528 1058 q 453 1088 484 1058 q 423 1163 423 1118 q 453 1236 423 1206 q 528 1267 484 1267 q 602 1236 572 1267 q 633 1163 633 1206 q 602 1088 633 1118 q 528 1058 572 1058 m 834 1058 q 759 1088 790 1058 q 728 1163 728 1118 q 759 1236 728 1206 q 834 1267 790 1267 q 908 1236 878 1267 q 938 1163 938 1206 q 908 1088 938 1118 q 834 1058 878 1058 z "},"Ẁ":{"ha":1361,"x_min":69,"x_max":1292,"o":"m 318 0 l 69 972 l 285 972 l 435 383 l 585 972 l 776 972 l 926 383 l 1076 972 l 1292 972 l 1044 0 l 810 0 l 681 504 l 553 0 l 318 0 m 474 1268 l 682 1268 l 738 1068 l 626 1068 l 474 1268 z "},"X":{"ha":1053,"x_min":42,"x_max":1011,"o":"m 42 0 l 397 489 l 46 972 l 303 972 l 526 665 l 750 972 l 1007 972 l 656 489 l 1011 0 l 753 0 l 526 311 l 300 0 l 42 0 z "},"Y":{"ha":967,"x_min":42,"x_max":925,"o":"m 679 972 l 925 972 l 588 438 l 588 0 l 379 0 l 379 438 l 42 972 l 288 972 l 483 664 l 679 972 z "},"Ý":{"ha":967,"x_min":42,"x_max":925,"o":"m 679 972 l 925 972 l 588 438 l 588 0 l 379 0 l 379 438 l 42 972 l 288 972 l 483 664 l 679 972 m 448 1068 l 503 1268 l 712 1268 l 559 1068 l 448 1068 z "},"Ŷ":{"ha":967,"x_min":42,"x_max":925,"o":"m 679 972 l 925 972 l 588 438 l 588 0 l 379 0 l 379 438 l 42 972 l 288 972 l 483 664 l 679 972 m 378 1250 l 588 1250 l 658 1088 l 524 1088 l 484 1186 l 442 1088 l 309 1088 l 378 1250 z "},"Ÿ":{"ha":967,"x_min":42,"x_max":925,"o":"m 679 972 l 925 972 l 588 438 l 588 0 l 379 0 l 379 438 l 42 972 l 288 972 l 483 664 l 679 972 m 331 1058 q 256 1088 287 1058 q 226 1163 226 1118 q 256 1236 226 1206 q 331 1267 287 1267 q 405 1236 375 1267 q 435 1163 435 1206 q 405 1088 435 1118 q 331 1058 375 1058 m 637 1058 q 562 1088 592 1058 q 531 1163 531 1118 q 562 1236 531 1206 q 637 1267 592 1267 q 711 1236 681 1267 q 741 1163 741 1206 q 711 1088 741 1118 q 637 1058 681 1058 z "},"Ỳ":{"ha":967,"x_min":42,"x_max":925,"o":"m 679 972 l 925 972 l 588 438 l 588 0 l 379 0 l 379 438 l 42 972 l 288 972 l 483 664 l 679 972 m 276 1268 l 485 1268 l 540 1068 l 429 1068 l 276 1268 z "},"Z":{"ha":953,"x_min":83,"x_max":869,"o":"m 83 0 l 83 208 l 588 764 l 83 764 l 83 972 l 869 972 l 869 764 l 365 208 l 869 208 l 869 0 l 83 0 z "},"a":{"ha":882,"x_min":50,"x_max":799,"o":"m 590 694 l 799 694 l 799 0 l 590 0 l 580 63 q 515 4 554 26 q 424 -18 476 -18 q 278 11 346 -18 q 159 92 210 40 q 79 211 108 144 q 50 357 50 279 q 77 496 50 431 q 153 609 104 560 q 266 686 202 658 q 404 714 331 714 q 513 689 464 714 q 600 628 562 665 l 590 694 m 430 182 q 510 206 475 182 q 562 269 544 230 q 574 357 580 309 q 542 435 567 400 q 481 492 517 471 q 403 513 444 513 q 325 489 359 513 q 273 426 290 465 q 261 338 256 386 q 293 260 268 295 q 353 203 317 224 q 430 182 390 182 z "},"á":{"ha":882,"x_min":50,"x_max":799,"o":"m 590 694 l 799 694 l 799 0 l 590 0 l 580 63 q 515 4 554 26 q 424 -18 476 -18 q 278 11 346 -18 q 159 92 210 40 q 79 211 108 144 q 50 357 50 279 q 77 496 50 431 q 153 609 104 560 q 266 686 202 658 q 404 714 331 714 q 513 689 464 714 q 600 628 562 665 l 590 694 m 430 182 q 510 206 475 182 q 562 269 544 230 q 574 357 580 309 q 542 435 567 400 q 481 492 517 471 q 403 513 444 513 q 325 489 359 513 q 273 426 290 465 q 261 338 256 386 q 293 260 268 295 q 353 203 317 224 q 430 182 390 182 m 406 790 l 461 990 l 669 990 l 517 790 l 406 790 z "},"â":{"ha":882,"x_min":50,"x_max":799,"o":"m 590 694 l 799 694 l 799 0 l 590 0 l 580 63 q 515 4 554 26 q 424 -18 476 -18 q 278 11 346 -18 q 159 92 210 40 q 79 211 108 144 q 50 357 50 279 q 77 496 50 431 q 153 609 104 560 q 266 686 202 658 q 404 714 331 714 q 513 689 464 714 q 600 628 562 665 l 590 694 m 430 182 q 510 206 475 182 q 562 269 544 230 q 574 357 580 309 q 542 435 567 400 q 481 492 517 471 q 403 513 444 513 q 325 489 359 513 q 273 426 290 465 q 261 338 256 386 q 293 260 268 295 q 353 203 317 224 q 430 182 390 182 m 336 972 l 546 972 l 615 810 l 482 810 l 442 908 l 400 810 l 267 810 l 336 972 z "},"ä":{"ha":882,"x_min":50,"x_max":799,"o":"m 590 694 l 799 694 l 799 0 l 590 0 l 580 63 q 515 4 554 26 q 424 -18 476 -18 q 278 11 346 -18 q 159 92 210 40 q 79 211 108 144 q 50 357 50 279 q 77 496 50 431 q 153 609 104 560 q 266 686 202 658 q 404 714 331 714 q 513 689 464 714 q 600 628 562 665 l 590 694 m 430 182 q 510 206 475 182 q 562 269 544 230 q 574 357 580 309 q 542 435 567 400 q 481 492 517 471 q 403 513 444 513 q 325 489 359 513 q 273 426 290 465 q 261 338 256 386 q 293 260 268 295 q 353 203 317 224 q 430 182 390 182 m 289 781 q 214 810 244 781 q 183 885 183 840 q 214 959 183 928 q 289 989 244 989 q 363 959 333 989 q 393 885 393 928 q 363 810 393 840 q 289 781 333 781 m 594 781 q 519 810 550 781 q 489 885 489 840 q 519 959 489 928 q 594 989 550 989 q 668 959 638 989 q 699 885 699 928 q 668 810 699 840 q 594 781 638 781 z "},"à":{"ha":882,"x_min":50,"x_max":799,"o":"m 590 694 l 799 694 l 799 0 l 590 0 l 580 63 q 515 4 554 26 q 424 -18 476 -18 q 278 11 346 -18 q 159 92 210 40 q 79 211 108 144 q 50 357 50 279 q 77 496 50 431 q 153 609 104 560 q 266 686 202 658 q 404 714 331 714 q 513 689 464 714 q 600 628 562 665 l 590 694 m 430 182 q 510 206 475 182 q 562 269 544 230 q 574 357 580 309 q 542 435 567 400 q 481 492 517 471 q 403 513 444 513 q 325 489 359 513 q 273 426 290 465 q 261 338 256 386 q 293 260 268 295 q 353 203 317 224 q 430 182 390 182 m 234 990 l 442 990 l 498 790 l 387 790 l 234 990 z "},"å":{"ha":882,"x_min":50,"x_max":799,"o":"m 590 694 l 799 694 l 799 0 l 590 0 l 580 63 q 515 4 554 26 q 424 -18 476 -18 q 278 11 346 -18 q 159 92 210 40 q 79 211 108 144 q 50 357 50 279 q 77 496 50 431 q 153 609 104 560 q 266 686 202 658 q 404 714 331 714 q 513 689 464 714 q 600 628 562 665 l 590 694 m 430 182 q 510 206 475 182 q 562 269 544 230 q 574 357 580 309 q 542 435 567 400 q 481 492 517 471 q 403 513 444 513 q 325 489 359 513 q 273 426 290 465 q 261 338 256 386 q 293 260 268 295 q 353 203 317 224 q 430 182 390 182 m 441 751 q 343 793 384 751 q 302 892 302 835 q 321 960 302 929 q 371 1010 340 992 q 441 1029 403 1029 q 539 989 499 1029 q 580 892 580 948 q 539 792 580 833 q 441 751 499 751 m 441 828 q 485 846 467 828 q 503 892 503 865 q 485 935 503 917 q 441 953 467 953 q 397 935 415 953 q 378 892 378 917 q 397 846 378 865 q 441 828 415 828 z "},"ã":{"ha":882,"x_min":50,"x_max":799,"o":"m 590 694 l 799 694 l 799 0 l 590 0 l 580 63 q 515 4 554 26 q 424 -18 476 -18 q 278 11 346 -18 q 159 92 210 40 q 79 211 108 144 q 50 357 50 279 q 77 496 50 431 q 153 609 104 560 q 266 686 202 658 q 404 714 331 714 q 513 689 464 714 q 600 628 562 665 l 590 694 m 430 182 q 510 206 475 182 q 562 269 544 230 q 574 357 580 309 q 542 435 567 400 q 481 492 517 471 q 403 513 444 513 q 325 489 359 513 q 273 426 290 465 q 261 338 256 386 q 293 260 268 295 q 353 203 317 224 q 430 182 390 182 m 549 762 q 486 781 523 762 q 412 823 449 800 q 350 858 376 845 q 320 859 324 871 q 318 835 316 847 q 327 802 321 823 l 210 770 q 198 881 189 832 q 241 959 206 931 q 333 988 276 988 q 392 973 358 988 q 459 939 426 958 q 518 905 493 919 q 551 890 544 890 q 566 898 564 890 q 563 919 567 906 q 553 945 558 932 l 673 984 q 684 869 694 919 q 638 790 674 819 q 549 762 603 762 z "},"æ":{"ha":1263,"x_min":56,"x_max":1230,"o":"m 350 -18 q 186 14 251 -18 q 88 103 121 45 q 56 239 56 160 q 81 338 56 294 q 149 407 106 381 q 249 432 193 432 l 529 432 q 513 472 525 454 q 481 501 501 489 q 437 519 462 513 q 383 525 413 525 q 312 517 336 525 q 278 498 288 509 q 261 476 267 487 l 82 582 q 159 668 115 640 q 259 705 203 696 q 383 714 315 714 q 489 705 440 714 q 578 677 538 696 q 649 628 618 658 q 715 674 679 655 q 791 703 751 693 q 874 714 831 714 q 1025 678 956 714 q 1142 580 1094 642 q 1210 440 1190 518 q 1214 279 1230 363 l 751 279 q 777 234 761 254 q 817 203 794 215 q 874 190 841 191 q 930 204 904 190 q 975 242 956 218 l 1188 192 q 1062 41 1146 99 q 874 -18 978 -18 q 750 6 808 -18 q 646 71 692 29 q 586 20 616 40 q 520 -9 556 1 q 438 -18 484 -18 l 350 -18 m 382 107 q 426 114 406 107 q 465 134 447 121 q 495 163 483 147 q 515 199 508 180 q 522 239 522 219 l 522 279 l 368 279 q 290 269 322 279 q 257 215 257 258 q 272 158 257 182 q 315 120 287 133 q 382 107 343 107 m 743 432 l 1003 432 q 974 485 993 462 q 929 520 955 508 q 874 533 903 533 q 818 520 844 533 q 772 485 792 508 q 743 432 753 462 z "},"b":{"ha":875,"x_min":83,"x_max":833,"o":"m 467 714 q 651 665 568 714 q 784 532 735 615 q 833 349 833 449 q 805 206 833 273 q 726 89 776 140 q 609 10 676 39 q 467 -18 543 -18 q 368 6 412 -18 q 292 65 324 29 l 292 0 l 83 0 l 83 1042 l 292 1042 l 292 631 q 368 691 324 667 q 467 714 412 714 m 464 183 q 542 206 507 183 q 599 265 578 228 q 619 349 619 303 q 599 431 619 394 q 542 491 578 469 q 464 514 507 514 q 386 491 422 514 q 331 431 351 469 q 310 349 310 394 q 331 265 310 303 q 386 206 351 228 q 464 183 422 183 z "},"c":{"ha":708,"x_min":42,"x_max":667,"o":"m 479 228 l 667 126 q 547 22 619 61 q 389 -18 474 -18 q 214 31 293 -18 q 89 164 135 81 q 42 347 42 247 q 69 490 42 424 q 143 607 96 556 q 254 685 191 657 q 389 714 317 714 q 547 674 474 714 q 667 568 619 635 l 479 467 q 437 495 460 485 q 389 506 414 506 q 318 483 349 506 q 268 425 287 461 q 250 347 250 389 q 268 270 250 306 q 318 213 287 235 q 389 190 349 190 q 437 200 414 190 q 479 228 460 210 z "},"ć":{"ha":708,"x_min":42,"x_max":667,"o":"m 479 228 l 667 126 q 547 22 619 61 q 389 -18 474 -18 q 214 31 293 -18 q 89 164 135 81 q 42 347 42 247 q 69 490 42 424 q 143 607 96 556 q 254 685 191 657 q 389 714 317 714 q 547 674 474 714 q 667 568 619 635 l 479 467 q 437 495 460 485 q 389 506 414 506 q 318 483 349 506 q 268 425 287 461 q 250 347 250 389 q 268 270 250 306 q 318 213 287 235 q 389 190 349 190 q 437 200 414 190 q 479 228 460 210 m 319 790 l 374 990 l 583 990 l 430 790 l 319 790 z "},"ç":{"ha":708,"x_min":42,"x_max":667,"o":"m 479 228 l 667 126 q 547 22 619 61 q 389 -18 474 -18 q 214 31 293 -18 q 89 164 135 81 q 42 347 42 247 q 69 490 42 424 q 143 607 96 556 q 254 685 191 657 q 389 714 317 714 q 547 674 474 714 q 667 568 619 635 l 479 467 q 437 495 460 485 q 389 506 414 506 q 318 483 349 506 q 268 425 287 461 q 250 347 250 389 q 268 270 250 306 q 318 213 287 235 q 389 190 349 190 q 437 200 414 190 q 479 228 460 210 m 177 -212 l 177 -61 l 266 -61 q 320 -44 294 -61 q 363 -1 346 -27 q 380 51 380 24 l 380 140 l 531 140 l 531 54 q 495 -80 531 -19 q 398 -176 459 -140 q 263 -212 338 -212 l 177 -212 z "},"d":{"ha":861,"x_min":42,"x_max":792,"o":"m 583 1042 l 792 1042 l 792 0 l 583 0 l 583 64 q 507 5 551 28 q 407 -18 463 -18 q 265 10 331 -18 q 149 89 199 39 q 70 206 99 140 q 42 347 42 272 q 70 489 42 423 q 149 605 99 555 q 265 684 199 656 q 407 713 331 713 q 507 690 463 713 q 583 631 551 667 l 583 1042 m 410 182 q 488 204 453 182 q 544 264 524 226 q 565 347 565 301 q 544 431 565 393 q 488 490 524 468 q 410 513 453 513 q 332 490 367 513 q 276 431 297 468 q 256 347 256 393 q 276 264 256 301 q 332 204 297 226 q 410 182 367 182 z "},"ð":{"ha":782,"x_min":56,"x_max":754,"o":"m 306 707 l 207 806 l 511 1106 l 608 1007 l 306 707 m 406 -18 q 230 29 309 -18 q 103 156 150 76 q 56 331 56 235 q 83 466 56 403 q 158 578 110 530 q 270 653 206 626 q 406 681 333 681 q 434 680 419 681 q 461 675 448 678 q 431 735 447 703 q 391 796 415 767 q 330 843 367 825 q 236 861 293 861 l 235 1069 q 451 1011 355 1069 q 615 851 547 952 q 718 623 683 751 q 754 356 754 494 q 709 162 754 247 q 585 30 664 78 q 406 -18 506 -18 m 406 190 q 476 209 444 190 q 527 260 508 228 q 546 331 546 292 q 527 402 546 369 q 476 453 508 434 q 406 472 444 472 q 334 453 367 472 q 283 402 302 434 q 264 331 264 369 q 283 260 264 292 q 334 209 302 228 q 406 190 367 190 z "},"e":{"ha":778,"x_min":42,"x_max":746,"o":"m 389 -18 q 214 31 293 -18 q 89 164 135 81 q 42 348 42 247 q 69 490 42 424 q 143 607 96 556 q 254 685 191 657 q 389 714 317 714 q 541 677 472 714 q 658 579 610 641 q 726 439 706 517 q 730 278 746 361 l 267 278 q 293 234 276 254 q 333 203 309 215 q 389 190 357 191 q 445 203 419 190 q 491 241 472 217 l 703 192 q 577 41 661 99 q 389 -18 493 -18 m 259 431 l 519 431 q 490 484 510 461 q 445 520 471 507 q 389 533 419 533 q 334 520 360 533 q 289 484 308 507 q 259 431 269 461 z "},"é":{"ha":777,"x_min":42,"x_max":746,"o":"m 389 -18 q 214 31 293 -18 q 89 164 135 81 q 42 348 42 247 q 69 490 42 424 q 143 607 96 556 q 254 685 191 657 q 389 714 317 714 q 541 677 472 714 q 658 579 610 641 q 726 439 706 517 q 730 278 746 361 l 267 278 q 293 234 276 254 q 333 203 309 215 q 389 190 357 191 q 445 203 419 190 q 491 241 472 217 l 703 192 q 577 41 661 99 q 389 -18 493 -18 m 259 431 l 519 431 q 490 484 510 461 q 445 520 471 507 q 389 533 419 533 q 334 520 360 533 q 289 484 308 507 q 259 431 269 461 m 353 790 l 409 990 l 617 990 l 465 790 l 353 790 z "},"ê":{"ha":777,"x_min":42,"x_max":746,"o":"m 389 -18 q 214 31 293 -18 q 89 164 135 81 q 42 348 42 247 q 69 490 42 424 q 143 607 96 556 q 254 685 191 657 q 389 714 317 714 q 541 677 472 714 q 658 579 610 641 q 726 439 706 517 q 730 278 746 361 l 267 278 q 293 234 276 254 q 333 203 309 215 q 389 190 357 191 q 445 203 419 190 q 491 241 472 217 l 703 192 q 577 41 661 99 q 389 -18 493 -18 m 259 431 l 519 431 q 490 484 510 461 q 445 520 471 507 q 389 533 419 533 q 334 520 360 533 q 289 484 308 507 q 259 431 269 461 m 284 972 l 494 972 l 563 810 l 430 810 l 390 908 l 348 810 l 215 810 l 284 972 z "},"ë":{"ha":777,"x_min":42,"x_max":746,"o":"m 389 -18 q 214 31 293 -18 q 89 164 135 81 q 42 348 42 247 q 69 490 42 424 q 143 607 96 556 q 254 685 191 657 q 389 714 317 714 q 541 677 472 714 q 658 579 610 641 q 726 439 706 517 q 730 278 746 361 l 267 278 q 293 234 276 254 q 333 203 309 215 q 389 190 357 191 q 445 203 419 190 q 491 241 472 217 l 703 192 q 577 41 661 99 q 389 -18 493 -18 m 259 431 l 519 431 q 490 484 510 461 q 445 520 471 507 q 389 533 419 533 q 334 520 360 533 q 289 484 308 507 q 259 431 269 461 m 237 781 q 162 810 192 781 q 131 885 131 840 q 162 959 131 928 q 237 989 192 989 q 311 959 281 989 q 341 885 341 928 q 311 810 341 840 q 237 781 281 781 m 542 781 q 467 810 498 781 q 437 885 437 840 q 467 959 437 928 q 542 989 498 989 q 616 959 586 989 q 647 885 647 928 q 616 810 647 840 q 542 781 586 781 z "},"è":{"ha":777,"x_min":42,"x_max":746,"o":"m 389 -18 q 214 31 293 -18 q 89 164 135 81 q 42 348 42 247 q 69 490 42 424 q 143 607 96 556 q 254 685 191 657 q 389 714 317 714 q 541 677 472 714 q 658 579 610 641 q 726 439 706 517 q 730 278 746 361 l 267 278 q 293 234 276 254 q 333 203 309 215 q 389 190 357 191 q 445 203 419 190 q 491 241 472 217 l 703 192 q 577 41 661 99 q 389 -18 493 -18 m 259 431 l 519 431 q 490 484 510 461 q 445 520 471 507 q 389 533 419 533 q 334 520 360 533 q 289 484 308 507 q 259 431 269 461 m 182 990 l 390 990 l 446 790 l 335 790 l 182 990 z "},"f":{"ha":529,"x_min":35,"x_max":518,"o":"m 308 821 l 308 694 l 488 694 l 488 486 l 308 486 l 308 0 l 100 0 l 100 486 l 35 486 l 35 694 l 100 694 l 100 821 q 132 940 100 886 q 219 1026 165 994 q 339 1058 273 1058 q 434 1039 387 1058 q 518 976 481 1019 l 368 829 q 356 845 365 840 q 339 850 347 850 q 317 842 326 850 q 308 821 308 833 z "},"g":{"ha":871,"x_min":42,"x_max":788,"o":"m 579 694 l 788 694 l 788 -7 q 756 -149 788 -86 q 669 -256 724 -212 q 543 -324 615 -301 q 393 -347 472 -347 q 252 -319 319 -347 q 132 -241 185 -291 q 49 -125 79 -191 l 239 -39 q 277 -92 253 -70 q 331 -126 301 -114 q 393 -137 360 -137 q 463 -130 429 -137 q 522 -106 496 -122 q 564 -66 549 -90 q 579 -7 579 -41 l 579 61 q 505 4 548 26 q 407 -18 463 -18 q 265 10 331 -18 q 149 89 199 39 q 70 206 99 140 q 42 347 42 272 q 70 489 42 423 q 149 605 99 555 q 265 684 199 656 q 407 713 331 713 q 505 691 463 713 q 579 633 548 669 l 579 694 m 410 182 q 488 204 453 182 q 544 264 524 226 q 565 347 565 301 q 544 431 565 393 q 488 490 524 468 q 410 513 453 513 q 332 490 367 513 q 276 431 297 468 q 256 347 256 393 q 276 264 256 301 q 332 204 297 226 q 410 182 367 182 z "},"h":{"ha":818,"x_min":83,"x_max":763,"o":"m 763 350 l 763 0 l 554 0 l 554 347 q 536 431 554 393 q 486 490 517 468 q 417 513 455 513 q 344 490 371 513 q 305 431 317 468 q 293 347 293 393 l 293 0 l 83 0 l 83 1042 l 292 1042 l 292 651 q 350 703 313 694 q 439 713 387 713 q 611 664 539 713 q 722 532 683 615 q 763 350 761 450 z "},"i":{"ha":460,"x_min":83,"x_max":292,"o":"m 83 694 l 292 694 l 292 0 l 83 0 l 83 694 m 188 781 q 113 810 144 781 q 83 885 83 840 q 113 959 83 928 q 188 989 144 989 q 262 959 232 989 q 292 885 292 928 q 262 810 292 840 q 188 781 232 781 z "},"ı":{"ha":460,"x_min":83,"x_max":292,"o":"m 83 694 l 292 694 l 292 0 l 83 0 l 83 694 z "},"í":{"ha":460,"x_min":83,"x_max":416,"o":"m 83 694 l 292 694 l 292 0 l 83 0 l 83 694 m 152 790 l 208 990 l 416 990 l 263 790 l 152 790 z "},"î":{"ha":460,"x_min":13,"x_max":362,"o":"m 83 694 l 292 694 l 292 0 l 83 0 l 83 694 m 83 972 l 292 972 l 362 810 l 228 810 l 188 908 l 147 810 l 13 810 l 83 972 z "},"ï":{"ha":460,"x_min":-70,"x_max":445,"o":"m 83 694 l 292 694 l 292 0 l 83 0 l 83 694 m 35 781 q -40 810 -9 781 q -70 885 -70 840 q -40 959 -70 928 q 35 989 -9 989 q 109 959 79 989 q 140 885 140 928 q 109 810 140 840 q 35 781 79 781 m 341 781 q 266 810 297 781 q 235 885 235 840 q 266 959 235 928 q 341 989 297 989 q 415 959 385 989 q 445 885 445 928 q 415 810 445 840 q 341 781 385 781 z "},"ì":{"ha":460,"x_min":-19,"x_max":292,"o":"m 83 694 l 292 694 l 292 0 l 83 0 l 83 694 m -19 990 l 189 990 l 244 790 l 133 790 l -19 990 z "},"j":{"ha":376,"x_min":-56,"x_max":272,"o":"m -56 -347 q -56 -326 -56 -347 q -56 -274 -56 -305 q -56 -212 -56 -243 q -56 -160 -56 -181 q -56 -139 -56 -139 q 4 -123 -23 -139 q 48 -80 31 -107 q 64 -19 64 -53 l 64 694 l 272 694 l 272 -19 q 228 -184 272 -110 q 110 -303 184 -258 q -56 -347 35 -347 m 168 764 q 94 795 124 764 q 64 868 64 826 q 94 942 64 912 q 168 972 124 972 q 242 942 211 972 q 272 868 272 912 q 242 795 272 826 q 168 764 211 764 z "},"k":{"ha":776,"x_min":83,"x_max":749,"o":"m 746 0 l 506 0 l 367 239 l 292 150 l 292 0 l 83 0 l 83 1042 l 292 1042 l 292 474 l 476 694 l 749 694 l 510 408 l 746 0 z "},"l":{"ha":375,"x_min":83,"x_max":292,"o":"m 83 0 l 83 1042 l 292 1042 l 292 0 l 83 0 z "},"m":{"ha":1213,"x_min":56,"x_max":1157,"o":"m 56 0 l 56 694 l 264 694 l 264 647 q 322 683 292 669 q 383 697 352 697 q 503 674 446 697 q 606 609 561 652 q 709 674 652 652 q 829 697 767 697 q 994 652 920 697 q 1113 534 1069 608 q 1157 369 1157 460 l 1157 0 l 949 0 l 949 369 q 933 430 949 403 q 890 472 917 456 q 829 488 863 488 q 769 472 797 488 q 726 430 742 456 q 710 369 710 403 l 710 0 l 502 0 l 502 369 q 486 430 502 403 q 443 472 470 456 q 383 488 416 488 q 323 472 351 488 q 280 430 296 456 q 264 369 264 403 l 264 0 l 56 0 z "},"n":{"ha":844,"x_min":69,"x_max":775,"o":"m 775 351 l 775 0 l 567 0 l 567 349 q 548 431 567 394 q 495 491 529 469 q 415 514 461 514 q 340 491 370 514 q 293 431 309 469 q 278 349 278 394 l 278 0 l 69 0 l 69 694 l 278 694 l 278 631 q 353 691 310 668 q 453 714 397 714 q 625 665 553 714 q 735 534 697 616 q 775 351 774 451 z "},"ñ":{"ha":844,"x_min":69,"x_max":775,"o":"m 775 351 l 775 0 l 567 0 l 567 349 q 548 431 567 394 q 495 491 529 469 q 415 514 461 514 q 340 491 370 514 q 293 431 309 469 q 278 349 278 394 l 278 0 l 69 0 l 69 694 l 278 694 l 278 631 q 353 691 310 668 q 453 714 397 714 q 625 665 553 714 q 735 534 697 616 q 775 351 774 451 m 531 762 q 467 781 504 762 q 393 823 430 800 q 331 858 357 845 q 301 859 306 871 q 300 835 297 847 q 308 802 302 823 l 192 770 q 179 881 170 832 q 222 959 188 931 q 314 988 257 988 q 373 973 339 988 q 441 939 407 958 q 500 905 474 919 q 532 890 525 890 q 547 898 545 890 q 544 919 549 906 q 535 945 540 932 l 654 984 q 665 869 676 919 q 619 790 655 819 q 531 762 584 762 z "},"o":{"ha":778,"x_min":42,"x_max":736,"o":"m 389 -18 q 214 31 293 -18 q 89 164 135 81 q 42 347 42 247 q 69 490 42 424 q 143 607 96 556 q 254 685 191 657 q 389 714 317 714 q 564 665 485 714 q 689 532 642 615 q 736 347 736 449 q 709 206 736 272 q 634 89 682 140 q 524 10 587 39 q 389 -18 461 -18 m 389 190 q 460 212 428 190 q 510 269 492 233 q 528 347 528 305 q 509 427 528 391 q 458 484 490 463 q 389 506 426 506 q 318 484 350 506 q 268 426 287 462 q 250 347 250 390 q 269 267 250 303 q 320 211 288 232 q 389 190 351 190 z "},"ó":{"ha":778,"x_min":42,"x_max":736,"o":"m 389 -18 q 214 31 293 -18 q 89 164 135 81 q 42 347 42 247 q 69 490 42 424 q 143 607 96 556 q 254 685 191 657 q 389 714 317 714 q 564 665 485 714 q 689 532 642 615 q 736 347 736 449 q 709 206 736 272 q 634 89 682 140 q 524 10 587 39 q 389 -18 461 -18 m 389 190 q 460 212 428 190 q 510 269 492 233 q 528 347 528 305 q 509 427 528 391 q 458 484 490 463 q 389 506 426 506 q 318 484 350 506 q 268 426 287 462 q 250 347 250 390 q 269 267 250 303 q 320 211 288 232 q 389 190 351 190 m 353 790 l 409 990 l 617 990 l 465 790 l 353 790 z "},"ô":{"ha":778,"x_min":42,"x_max":736,"o":"m 389 -18 q 214 31 293 -18 q 89 164 135 81 q 42 347 42 247 q 69 490 42 424 q 143 607 96 556 q 254 685 191 657 q 389 714 317 714 q 564 665 485 714 q 689 532 642 615 q 736 347 736 449 q 709 206 736 272 q 634 89 682 140 q 524 10 587 39 q 389 -18 461 -18 m 389 190 q 460 212 428 190 q 510 269 492 233 q 528 347 528 305 q 509 427 528 391 q 458 484 490 463 q 389 506 426 506 q 318 484 350 506 q 268 426 287 462 q 250 347 250 390 q 269 267 250 303 q 320 211 288 232 q 389 190 351 190 m 284 972 l 494 972 l 563 810 l 430 810 l 390 908 l 348 810 l 215 810 l 284 972 z "},"ö":{"ha":778,"x_min":42,"x_max":736,"o":"m 389 -18 q 214 31 293 -18 q 89 164 135 81 q 42 347 42 247 q 69 490 42 424 q 143 607 96 556 q 254 685 191 657 q 389 714 317 714 q 564 665 485 714 q 689 532 642 615 q 736 347 736 449 q 709 206 736 272 q 634 89 682 140 q 524 10 587 39 q 389 -18 461 -18 m 389 190 q 460 212 428 190 q 510 269 492 233 q 528 347 528 305 q 509 427 528 391 q 458 484 490 463 q 389 506 426 506 q 318 484 350 506 q 268 426 287 462 q 250 347 250 390 q 269 267 250 303 q 320 211 288 232 q 389 190 351 190 m 237 781 q 162 810 192 781 q 131 885 131 840 q 162 959 131 928 q 237 989 192 989 q 311 959 281 989 q 341 885 341 928 q 311 810 341 840 q 237 781 281 781 m 542 781 q 467 810 498 781 q 437 885 437 840 q 467 959 437 928 q 542 989 498 989 q 616 959 586 989 q 647 885 647 928 q 616 810 647 840 q 542 781 586 781 z "},"ò":{"ha":778,"x_min":42,"x_max":736,"o":"m 389 -18 q 214 31 293 -18 q 89 164 135 81 q 42 347 42 247 q 69 490 42 424 q 143 607 96 556 q 254 685 191 657 q 389 714 317 714 q 564 665 485 714 q 689 532 642 615 q 736 347 736 449 q 709 206 736 272 q 634 89 682 140 q 524 10 587 39 q 389 -18 461 -18 m 389 190 q 460 212 428 190 q 510 269 492 233 q 528 347 528 305 q 509 427 528 391 q 458 484 490 463 q 389 506 426 506 q 318 484 350 506 q 268 426 287 462 q 250 347 250 390 q 269 267 250 303 q 320 211 288 232 q 389 190 351 190 m 182 990 l 390 990 l 446 790 l 335 790 l 182 990 z "},"ø":{"ha":778,"x_min":42,"x_max":736,"o":"m 250 -60 l 106 24 l 143 89 q 69 206 97 139 q 42 347 42 272 q 69 490 42 424 q 143 607 96 556 q 254 685 191 657 q 389 714 317 714 q 443 710 416 714 q 493 697 469 706 l 528 756 l 672 672 l 635 607 q 709 490 682 557 q 736 347 736 424 q 709 206 736 272 q 634 89 682 140 q 524 10 587 39 q 389 -18 461 -18 q 335 -14 361 -18 q 283 -1 308 -10 l 250 -60 m 246 264 l 400 532 q 335 515 365 531 q 282 471 305 499 q 246 409 259 444 q 233 335 233 374 q 236 298 233 315 q 246 264 240 281 m 378 164 q 444 181 414 165 q 497 224 474 197 q 532 286 519 251 q 544 360 544 321 q 541 398 544 380 q 532 432 538 415 l 378 164 z "},"õ":{"ha":778,"x_min":42,"x_max":736,"o":"m 389 -18 q 214 31 293 -18 q 89 164 135 81 q 42 347 42 247 q 69 490 42 424 q 143 607 96 556 q 254 685 191 657 q 389 714 317 714 q 564 665 485 714 q 689 532 642 615 q 736 347 736 449 q 709 206 736 272 q 634 89 682 140 q 524 10 587 39 q 389 -18 461 -18 m 389 190 q 460 212 428 190 q 510 269 492 233 q 528 347 528 305 q 509 427 528 391 q 458 484 490 463 q 389 506 426 506 q 318 484 350 506 q 268 426 287 462 q 250 347 250 390 q 269 267 250 303 q 320 211 288 232 q 389 190 351 190 m 497 762 q 434 781 471 762 q 360 823 397 800 q 298 858 324 845 q 268 859 272 871 q 266 835 264 847 q 275 802 269 823 l 158 770 q 145 881 137 832 q 189 959 154 931 q 281 988 224 988 q 340 973 306 988 q 407 939 374 958 q 466 905 441 919 q 499 890 492 890 q 514 898 512 890 q 511 919 515 906 q 501 945 506 932 l 621 984 q 632 869 642 919 q 586 790 622 819 q 497 762 551 762 z "},"œ":{"ha":1263,"x_min":42,"x_max":1231,"o":"m 389 -18 q 214 31 293 -18 q 89 164 135 81 q 42 347 42 247 q 69 490 42 424 q 143 607 96 556 q 254 685 191 657 q 389 714 317 714 q 480 701 436 714 q 562 665 524 688 q 632 610 601 642 q 702 665 663 642 q 784 701 740 688 q 875 714 828 714 q 1027 678 958 714 q 1144 580 1096 642 q 1211 440 1192 518 q 1215 279 1231 363 l 753 279 q 779 234 763 254 q 819 203 795 215 q 875 190 842 191 q 932 204 906 190 q 976 242 958 218 l 1189 192 q 1063 41 1147 99 q 875 -18 979 -18 q 784 -5 828 -18 q 702 31 740 8 q 632 86 663 54 q 562 31 601 54 q 480 -5 524 8 q 389 -18 436 -18 m 389 190 q 460 212 428 190 q 510 269 492 233 q 528 347 528 305 q 509 427 528 391 q 458 484 490 463 q 389 506 426 506 q 318 484 350 506 q 268 426 287 462 q 250 347 250 390 q 269 267 250 303 q 320 211 288 232 q 389 190 351 190 m 744 432 l 1004 432 q 975 485 994 462 q 931 520 956 508 q 875 533 905 533 q 819 520 845 533 q 774 485 793 508 q 744 432 754 462 z "},"p":{"ha":888,"x_min":83,"x_max":832,"o":"m 292 -347 l 83 -347 l 83 694 l 292 694 l 292 629 q 367 689 324 666 q 467 713 410 713 q 609 684 543 713 q 725 605 675 656 q 804 489 776 555 q 832 347 832 423 q 804 205 832 272 q 725 88 776 138 q 609 9 675 38 q 467 -19 543 -19 q 367 4 410 -19 q 292 64 324 28 l 292 -347 m 464 513 q 386 490 422 513 q 331 430 351 467 q 310 347 310 392 q 331 264 310 301 q 386 204 351 226 q 464 182 422 182 q 542 204 507 182 q 599 264 578 226 q 619 347 619 301 q 599 430 619 392 q 542 490 578 467 q 464 513 507 513 z "},"þ":{"ha":888,"x_min":83,"x_max":832,"o":"m 83 -347 l 83 972 l 292 972 l 292 629 q 367 689 324 666 q 467 713 410 713 q 609 684 543 713 q 725 605 675 656 q 804 489 776 555 q 832 347 832 423 q 804 205 832 272 q 725 88 776 138 q 609 9 675 38 q 467 -19 543 -19 q 367 4 410 -19 q 292 64 324 28 l 292 -347 l 83 -347 m 464 182 q 542 204 507 182 q 599 264 578 226 q 619 347 619 301 q 599 430 619 392 q 542 490 578 467 q 464 513 507 513 q 386 490 422 513 q 331 430 351 467 q 310 347 310 392 q 331 264 310 301 q 386 204 351 226 q 464 182 422 182 z "},"q":{"ha":888,"x_min":56,"x_max":804,"o":"m 421 -19 q 237 30 320 -19 q 105 163 154 79 q 56 347 56 246 q 84 489 56 423 q 163 605 113 555 q 279 684 213 656 q 421 713 345 713 q 520 689 477 713 q 596 629 564 666 l 596 694 l 804 694 l 804 -347 l 596 -347 l 596 64 q 520 4 564 28 q 421 -19 477 -19 m 424 513 q 345 490 381 513 q 290 430 310 467 q 269 347 269 392 q 290 264 269 301 q 345 204 310 226 q 424 182 381 182 q 502 204 467 182 q 557 264 537 226 q 578 347 578 301 q 557 430 578 392 q 502 490 537 467 q 424 513 467 513 z "},"r":{"ha":578,"x_min":83,"x_max":557,"o":"m 524 481 q 481 504 505 495 q 429 513 458 513 q 354 490 384 513 q 308 431 324 468 q 293 347 293 393 l 293 0 l 83 0 l 83 694 l 292 694 l 292 631 q 367 690 324 667 q 467 713 410 713 q 514 711 491 713 q 557 704 536 710 l 524 481 z "},"s":{"ha":621,"x_min":42,"x_max":581,"o":"m 290 -12 q 189 10 238 -8 q 102 60 140 28 q 42 136 64 91 l 217 211 q 236 192 224 203 q 268 172 249 181 q 314 163 287 163 q 349 166 332 163 q 377 180 366 170 q 388 207 388 190 q 373 236 388 226 q 339 251 359 247 q 301 258 319 256 q 183 298 240 268 q 90 375 126 327 q 54 486 54 422 q 91 610 54 558 q 187 690 127 662 q 315 718 247 718 q 466 685 397 718 q 579 589 535 651 l 415 492 q 395 513 407 502 q 367 532 383 524 q 333 542 351 540 q 290 540 309 544 q 260 525 271 536 q 249 492 249 513 q 268 463 249 472 q 312 449 288 453 q 351 440 336 445 q 464 390 411 421 q 549 314 517 358 q 579 210 581 269 q 538 88 579 140 q 430 8 496 35 q 290 -12 364 -19 z "},"ß":{"ha":824,"x_min":83,"x_max":782,"o":"m 83 0 l 83 604 q 112 747 83 681 q 191 864 140 814 q 308 943 241 915 q 451 972 375 972 q 596 936 531 972 q 698 835 660 899 q 736 690 736 772 q 728 624 736 660 q 701 557 721 588 q 646 510 682 526 q 719 479 692 503 q 760 420 747 455 q 778 349 774 386 q 782 279 782 312 q 742 135 782 199 q 636 36 703 72 q 489 0 569 0 l 438 0 l 410 176 l 467 176 q 532 193 503 176 q 580 236 562 209 q 597 294 597 263 q 580 352 597 326 q 532 395 562 378 q 467 413 503 411 l 410 415 l 410 583 l 426 586 q 477 605 454 591 q 514 640 500 618 q 528 690 528 662 q 514 742 528 719 q 477 780 500 766 q 426 794 454 794 q 358 776 389 794 q 310 728 328 758 q 292 660 292 697 l 292 0 l 83 0 z "},"t":{"ha":507,"x_min":49,"x_max":465,"o":"m 465 486 l 347 486 l 347 0 l 139 0 l 139 486 l 49 486 l 49 694 l 139 694 l 139 913 l 347 913 l 347 694 l 465 694 l 465 486 z "},"u":{"ha":872,"x_min":83,"x_max":789,"o":"m 83 344 l 83 694 l 292 694 l 292 347 q 310 264 292 301 q 363 204 329 226 q 443 182 397 182 q 519 204 488 182 q 565 264 549 226 q 581 347 581 301 l 581 694 l 789 694 l 789 0 l 581 0 l 581 64 q 505 4 549 28 q 406 -19 462 -19 q 234 30 306 -19 q 123 161 162 78 q 83 344 84 244 z "},"ú":{"ha":872,"x_min":83,"x_max":789,"o":"m 83 344 l 83 694 l 292 694 l 292 347 q 310 264 292 301 q 363 204 329 226 q 443 182 397 182 q 519 204 488 182 q 565 264 549 226 q 581 347 581 301 l 581 694 l 789 694 l 789 0 l 581 0 l 581 64 q 505 4 549 28 q 406 -19 462 -19 q 234 30 306 -19 q 123 161 162 78 q 83 344 84 244 m 401 790 l 456 990 l 665 990 l 512 790 l 401 790 z "},"û":{"ha":872,"x_min":83,"x_max":789,"o":"m 83 344 l 83 694 l 292 694 l 292 347 q 310 264 292 301 q 363 204 329 226 q 443 182 397 182 q 519 204 488 182 q 565 264 549 226 q 581 347 581 301 l 581 694 l 789 694 l 789 0 l 581 0 l 581 64 q 505 4 549 28 q 406 -19 462 -19 q 234 30 306 -19 q 123 161 162 78 q 83 344 84 244 m 331 972 l 541 972 l 610 810 l 477 810 l 437 908 l 395 810 l 262 810 l 331 972 z "},"ü":{"ha":872,"x_min":83,"x_max":789,"o":"m 83 344 l 83 694 l 292 694 l 292 347 q 310 264 292 301 q 363 204 329 226 q 443 182 397 182 q 519 204 488 182 q 565 264 549 226 q 581 347 581 301 l 581 694 l 789 694 l 789 0 l 581 0 l 581 64 q 505 4 549 28 q 406 -19 462 -19 q 234 30 306 -19 q 123 161 162 78 q 83 344 84 244 m 284 781 q 209 810 240 781 q 178 885 178 840 q 209 959 178 928 q 284 989 240 989 q 358 959 328 989 q 388 885 388 928 q 358 810 388 840 q 284 781 328 781 m 590 781 q 515 810 545 781 q 484 885 484 840 q 515 959 484 928 q 590 989 545 989 q 664 959 633 989 q 694 885 694 928 q 664 810 694 840 q 590 781 633 781 z "},"ù":{"ha":872,"x_min":83,"x_max":789,"o":"m 83 344 l 83 694 l 292 694 l 292 347 q 310 264 292 301 q 363 204 329 226 q 443 182 397 182 q 519 204 488 182 q 565 264 549 226 q 581 347 581 301 l 581 694 l 789 694 l 789 0 l 581 0 l 581 64 q 505 4 549 28 q 406 -19 462 -19 q 234 30 306 -19 q 123 161 162 78 q 83 344 84 244 m 229 990 l 438 990 l 493 790 l 382 790 l 229 990 z "},"v":{"ha":858,"x_min":42,"x_max":817,"o":"m 564 0 l 294 0 l 42 694 l 264 694 l 429 239 l 594 694 l 817 694 l 564 0 z "},"w":{"ha":1214,"x_min":42,"x_max":1172,"o":"m 478 0 l 274 0 l 42 694 l 246 694 l 376 304 l 506 694 l 708 694 l 838 304 l 968 694 l 1172 694 l 940 0 l 736 0 l 607 390 l 478 0 z "},"ẃ":{"ha":1214,"x_min":42,"x_max":1172,"o":"m 478 0 l 274 0 l 42 694 l 246 694 l 376 304 l 506 694 l 708 694 l 838 304 l 968 694 l 1172 694 l 940 0 l 736 0 l 607 390 l 478 0 m 572 790 l 627 990 l 835 990 l 683 790 l 572 790 z "},"ŵ":{"ha":1214,"x_min":42,"x_max":1172,"o":"m 478 0 l 274 0 l 42 694 l 246 694 l 376 304 l 506 694 l 708 694 l 838 304 l 968 694 l 1172 694 l 940 0 l 736 0 l 607 390 l 478 0 m 502 972 l 712 972 l 781 810 l 648 810 l 608 908 l 566 810 l 433 810 l 502 972 z "},"ẅ":{"ha":1214,"x_min":42,"x_max":1172,"o":"m 478 0 l 274 0 l 42 694 l 246 694 l 376 304 l 506 694 l 708 694 l 838 304 l 968 694 l 1172 694 l 940 0 l 736 0 l 607 390 l 478 0 m 455 781 q 380 810 410 781 q 349 885 349 840 q 380 959 349 928 q 455 989 410 989 q 529 959 499 989 q 559 885 559 928 q 529 810 559 840 q 455 781 499 781 m 760 781 q 685 810 716 781 q 655 885 655 840 q 685 959 655 928 q 760 989 716 989 q 834 959 804 989 q 865 885 865 928 q 834 810 865 840 q 760 781 804 781 z "},"ẁ":{"ha":1214,"x_min":42,"x_max":1172,"o":"m 478 0 l 274 0 l 42 694 l 246 694 l 376 304 l 506 694 l 708 694 l 838 304 l 968 694 l 1172 694 l 940 0 l 736 0 l 607 390 l 478 0 m 400 990 l 608 990 l 664 790 l 553 790 l 400 990 z "},"x":{"ha":876,"x_min":56,"x_max":821,"o":"m 56 0 l 310 349 l 58 694 l 315 694 l 438 526 l 561 694 l 818 694 l 567 349 l 821 0 l 564 0 l 438 172 l 313 0 l 56 0 z "},"y":{"ha":838,"x_min":56,"x_max":782,"o":"m 560 694 l 782 694 l 401 -347 l 181 -347 l 306 0 l 56 694 l 283 694 l 410 285 l 560 694 z "},"ý":{"ha":838,"x_min":56,"x_max":782,"o":"m 560 694 l 782 694 l 401 -347 l 181 -347 l 306 0 l 56 694 l 283 694 l 410 285 l 560 694 m 383 790 l 439 990 l 647 990 l 494 790 l 383 790 z "},"ŷ":{"ha":838,"x_min":56,"x_max":782,"o":"m 560 694 l 782 694 l 401 -347 l 181 -347 l 306 0 l 56 694 l 283 694 l 410 285 l 560 694 m 314 972 l 524 972 l 593 810 l 460 810 l 419 908 l 378 810 l 244 810 l 314 972 z "},"ÿ":{"ha":838,"x_min":56,"x_max":782,"o":"m 560 694 l 782 694 l 401 -347 l 181 -347 l 306 0 l 56 694 l 283 694 l 410 285 l 560 694 m 267 781 q 192 810 222 781 q 161 885 161 840 q 192 959 161 928 q 267 989 222 989 q 341 959 310 989 q 371 885 371 928 q 341 810 371 840 q 267 781 310 781 m 572 781 q 497 810 528 781 q 467 885 467 840 q 497 959 467 928 q 572 989 528 989 q 646 959 616 989 q 676 885 676 928 q 646 810 676 840 q 572 781 616 781 z "},"ỳ":{"ha":838,"x_min":56,"x_max":782,"o":"m 560 694 l 782 694 l 401 -347 l 181 -347 l 306 0 l 56 694 l 283 694 l 410 285 l 560 694 m 212 990 l 420 990 l 476 790 l 365 790 l 212 990 z "},"z":{"ha":760,"x_min":83,"x_max":676,"o":"m 676 486 l 385 208 l 676 208 l 676 0 l 83 0 l 83 208 l 375 486 l 83 486 l 83 694 l 676 694 l 676 486 z "},"ª":{"ha":882,"x_min":50,"x_max":799,"o":"m 590 694 l 799 694 l 799 0 l 590 0 l 580 63 q 515 4 554 26 q 424 -18 476 -18 q 278 11 346 -18 q 159 92 210 40 q 79 211 108 144 q 50 357 50 279 q 77 496 50 431 q 153 609 104 560 q 266 686 202 658 q 404 714 331 714 q 513 689 464 714 q 600 628 562 665 l 590 694 m 430 182 q 510 206 475 182 q 562 269 544 230 q 574 357 580 309 q 542 435 567 400 q 481 492 517 471 q 403 513 444 513 q 325 489 359 513 q 273 426 290 465 q 261 338 256 386 q 293 260 268 295 q 353 203 317 224 q 430 182 390 182 z "},"º":{"ha":778,"x_min":42,"x_max":736,"o":"m 389 -18 q 214 31 293 -18 q 89 164 135 81 q 42 347 42 247 q 69 490 42 424 q 143 607 96 556 q 254 685 191 657 q 389 714 317 714 q 564 665 485 714 q 689 532 642 615 q 736 347 736 449 q 709 206 736 272 q 634 89 682 140 q 524 10 587 39 q 389 -18 461 -18 m 389 190 q 460 212 428 190 q 510 269 492 233 q 528 347 528 305 q 509 427 528 391 q 458 484 490 463 q 389 506 426 506 q 318 484 350 506 q 268 426 287 462 q 250 347 250 390 q 269 267 250 303 q 320 211 288 232 q 389 190 351 190 z "},"μ":{"ha":817,"x_min":56,"x_max":761,"o":"m 56 -300 l 56 694 l 264 694 l 264 347 q 283 264 264 301 q 335 204 301 226 q 415 182 369 182 q 491 204 460 182 q 537 264 522 226 q 553 347 553 301 l 553 694 l 761 694 l 761 0 l 553 0 l 553 64 q 477 4 521 28 q 378 -19 434 -19 q 318 -14 347 -19 q 264 0 290 -9 l 264 -300 l 56 -300 z "},"₀":{"ha":450,"x_min":50,"x_max":400,"o":"m 225 -22 q 137 11 177 -22 q 74 99 97 44 q 50 220 50 153 q 74 340 50 286 q 137 427 97 394 q 225 460 177 460 q 313 427 274 460 q 376 340 353 394 q 400 220 400 286 q 376 99 400 153 q 313 11 353 44 q 225 -22 274 -22 m 225 95 q 257 117 244 95 q 277 168 270 139 q 283 220 283 198 q 276 274 283 246 q 257 323 269 303 q 225 343 244 343 q 191 322 204 343 q 173 273 178 301 q 167 220 167 244 q 173 164 167 193 q 193 115 180 135 q 225 95 206 95 z "},"₁":{"ha":324,"x_min":67,"x_max":224,"o":"m 107 0 l 107 322 l 67 322 l 83 438 l 224 438 l 224 0 l 107 0 z "},"₂":{"ha":505,"x_min":67,"x_max":405,"o":"m 67 0 l 67 101 q 128 141 97 122 q 189 181 159 160 q 244 228 218 202 q 288 290 269 255 q 273 328 288 313 q 237 343 258 343 q 199 328 215 343 q 183 290 183 313 l 67 290 q 90 375 67 337 q 151 437 113 414 q 237 460 190 460 q 322 437 283 460 q 382 375 360 414 q 405 290 405 337 q 394 240 405 263 q 365 197 383 217 q 325 156 347 176 q 280 117 303 137 l 397 117 l 397 0 l 67 0 z "},"₃":{"ha":408,"x_min":50,"x_max":358,"o":"m 205 -22 q 127 0 163 -22 q 71 56 92 21 q 50 133 50 91 l 167 133 q 178 106 167 117 q 205 95 189 95 q 231 106 220 95 q 242 133 242 117 q 223 173 242 153 q 165 192 204 192 l 165 265 q 217 283 205 265 q 230 315 230 300 q 222 335 230 326 q 201 343 213 343 q 182 335 190 343 q 174 315 174 326 l 57 315 q 99 417 57 375 q 201 460 142 460 q 304 417 262 460 q 347 315 347 375 q 340 272 347 292 q 322 232 334 251 q 349 186 340 212 q 358 133 358 160 q 338 56 358 91 q 282 0 317 21 q 205 -22 247 -22 z "},"₄":{"ha":483,"x_min":67,"x_max":383,"o":"m 230 0 l 230 60 l 67 60 l 67 200 l 218 438 l 347 438 l 347 176 l 383 176 l 383 60 l 347 60 l 347 0 l 230 0 m 180 176 l 242 176 l 242 275 l 180 176 z "},"₅":{"ha":490,"x_min":58,"x_max":390,"o":"m 224 -22 q 141 1 178 -22 q 81 60 103 23 q 58 143 58 97 l 175 143 q 189 109 175 124 q 224 95 203 95 q 259 109 244 95 q 274 143 274 124 q 259 177 274 163 q 224 192 244 192 l 78 192 l 103 438 l 340 438 l 340 337 l 210 337 l 210 308 l 226 308 q 349 261 308 308 q 390 143 390 213 q 368 60 390 97 q 307 1 345 23 q 224 -22 269 -22 z "},"₆":{"ha":474,"x_min":67,"x_max":390,"o":"m 228 -22 q 114 25 161 -22 q 67 140 67 72 q 71 176 67 159 q 89 220 75 192 q 133 298 103 247 q 213 437 163 349 l 349 437 l 267 297 q 335 260 308 283 q 376 206 363 237 q 390 138 390 175 q 368 57 390 94 q 309 0 346 21 q 228 -22 273 -22 m 228 95 q 264 112 250 95 q 272 150 277 128 q 256 174 268 165 q 228 183 244 183 q 192 165 202 183 q 185 128 181 146 q 202 102 189 108 q 228 95 216 95 z "},"₇":{"ha":476,"x_min":83,"x_max":426,"o":"m 106 0 l 292 322 l 83 322 l 83 438 l 426 438 l 426 325 l 240 0 l 106 0 z "},"₈":{"ha":442,"x_min":67,"x_max":375,"o":"m 220 -22 q 111 23 156 -22 q 67 130 67 67 q 76 184 67 158 q 101 230 85 210 q 82 269 89 248 q 75 313 75 291 q 118 417 75 375 q 220 460 160 460 q 323 417 280 460 q 367 313 367 375 q 360 269 367 291 q 340 230 353 248 q 366 184 356 210 q 375 130 375 158 q 330 23 375 67 q 220 -22 285 -22 m 220 93 q 247 104 236 93 q 258 130 258 115 q 247 157 258 146 q 220 168 236 168 q 194 157 205 168 q 183 130 183 146 q 194 104 183 115 q 220 93 205 93 m 220 285 q 241 293 233 285 q 250 313 250 302 q 241 334 250 326 q 220 343 233 343 q 200 334 209 343 q 192 313 192 326 q 200 293 192 302 q 220 285 209 285 z "},"₉":{"ha":457,"x_min":50,"x_max":374,"o":"m 90 0 l 172 142 q 120 164 143 149 q 82 201 98 179 q 58 247 67 222 q 50 299 50 272 q 72 380 50 343 q 130 438 93 416 q 212 460 167 460 q 294 438 258 460 q 351 380 330 416 q 373 302 372 344 q 351 218 374 259 l 225 0 l 90 0 m 212 253 q 235 260 224 253 q 251 277 245 267 q 257 300 257 288 q 242 330 257 316 q 212 343 228 343 q 187 336 197 343 q 172 318 177 328 q 167 297 167 308 q 183 263 167 272 q 212 253 199 253 z "},"⁰":{"ha":450,"x_min":50,"x_max":400,"o":"m 225 554 q 137 585 177 554 q 74 668 97 615 q 50 788 50 721 q 74 906 50 853 q 137 989 97 958 q 225 1019 177 1019 q 313 989 274 1019 q 376 906 353 958 q 400 788 400 853 q 376 668 400 721 q 313 585 353 615 q 225 554 274 554 m 225 663 q 257 684 244 663 q 277 736 270 706 q 283 788 283 765 q 276 842 283 814 q 257 891 269 871 q 225 911 244 911 q 191 890 204 911 q 173 841 178 869 q 167 788 167 812 q 173 731 167 760 q 193 682 180 702 q 225 663 206 663 z "},"¹":{"ha":324,"x_min":67,"x_max":224,"o":"m 107 568 l 107 890 l 67 890 l 83 1006 l 224 1006 l 224 568 l 107 568 z "},"²":{"ha":505,"x_min":67,"x_max":405,"o":"m 67 568 l 67 669 q 128 709 97 690 q 189 749 159 728 q 244 796 218 769 q 288 858 269 822 q 273 895 288 880 q 237 911 258 911 q 199 895 215 911 q 183 858 183 880 l 67 858 q 90 941 67 905 q 151 999 113 978 q 237 1019 190 1019 q 356 974 307 1019 q 405 858 405 928 q 394 808 405 831 q 365 764 383 785 q 325 724 347 744 q 280 685 303 705 l 397 685 l 397 568 l 67 568 z "},"³":{"ha":408,"x_min":50,"x_max":358,"o":"m 205 554 q 96 596 142 554 q 50 701 50 638 l 167 701 q 178 674 167 685 q 205 663 189 663 q 231 674 220 663 q 242 701 242 685 q 223 741 242 722 q 165 760 204 760 l 165 833 q 217 850 205 833 q 230 883 230 867 q 222 903 230 894 q 201 911 213 911 q 182 903 190 911 q 174 883 174 894 l 57 883 q 99 981 57 942 q 201 1019 142 1019 q 304 981 262 1019 q 347 883 347 942 q 340 839 347 860 q 322 799 334 818 q 349 754 340 780 q 358 701 358 728 q 313 596 358 638 q 205 554 267 554 z "},"⁴":{"ha":483,"x_min":67,"x_max":383,"o":"m 230 568 l 230 628 l 67 628 l 67 768 l 218 1006 l 347 1006 l 347 744 l 383 744 l 383 628 l 347 628 l 347 568 l 230 568 m 180 744 l 242 744 l 242 843 l 180 744 z "},"⁵":{"ha":490,"x_min":58,"x_max":390,"o":"m 224 554 q 107 598 156 554 q 58 711 58 642 l 175 711 q 189 677 175 692 q 224 663 203 663 q 259 677 244 663 q 274 711 274 692 q 259 744 274 731 q 224 760 244 757 q 186 761 212 761 q 132 759 160 760 q 80 754 103 757 l 103 1006 l 340 1006 l 340 906 l 210 906 l 210 876 q 342 830 294 876 q 390 711 390 783 q 368 630 390 665 q 307 574 345 594 q 224 554 269 554 z "},"⁶":{"ha":490,"x_min":67,"x_max":390,"o":"m 228 554 q 114 597 161 554 q 67 708 67 639 q 71 743 67 726 q 89 787 75 760 q 133 866 103 815 q 213 1004 163 917 l 349 1004 l 267 865 q 335 828 308 851 q 376 774 363 805 q 390 706 390 743 q 368 627 390 661 q 309 573 346 592 q 228 554 273 554 m 228 663 q 264 680 250 663 q 272 718 277 697 q 256 742 268 733 q 228 751 244 751 q 191 733 202 751 q 185 696 180 714 q 202 669 189 676 q 228 663 216 663 z "},"⁷":{"ha":476,"x_min":83,"x_max":426,"o":"m 108 568 l 292 888 l 83 888 l 83 1004 l 426 1004 l 426 891 l 242 568 l 108 568 z "},"⁸":{"ha":442,"x_min":67,"x_max":375,"o":"m 220 554 q 111 594 156 554 q 67 698 67 634 q 76 752 67 726 q 101 798 85 778 q 82 837 89 815 q 75 881 75 859 q 118 982 75 942 q 220 1021 160 1021 q 323 982 280 1021 q 367 881 367 942 q 360 837 367 859 q 340 798 353 815 q 366 752 356 778 q 375 698 375 726 q 330 594 375 634 q 220 554 285 554 m 220 661 q 247 672 236 661 q 258 698 258 683 q 247 725 258 714 q 220 736 236 736 q 194 725 205 736 q 183 698 183 714 q 194 672 183 683 q 220 661 205 661 m 220 853 q 241 861 233 853 q 250 881 250 870 q 241 902 250 894 q 220 911 233 911 q 200 902 209 911 q 192 881 192 894 q 200 861 192 870 q 220 853 209 853 z "},"⁹":{"ha":457,"x_min":50,"x_max":374,"o":"m 90 568 l 172 710 q 120 732 143 717 q 82 768 98 747 q 58 815 67 790 q 50 866 50 840 q 97 976 50 932 q 212 1019 144 1019 q 276 1008 247 1019 q 327 975 306 996 q 361 926 349 953 q 374 866 374 898 q 368 826 374 847 q 351 786 363 806 l 225 568 l 90 568 m 212 821 q 235 827 224 821 q 251 845 245 834 q 257 868 257 856 q 242 898 257 884 q 212 911 228 911 q 187 904 197 911 q 172 886 177 897 q 167 865 167 876 q 183 830 167 840 q 212 821 199 821 z "},"⁄":{"ha":729,"x_min":0,"x_max":729,"o":"m 0 0 l 561 972 l 729 972 l 168 0 l 0 0 z "},"½":{"ha":1558,"x_min":67,"x_max":1458,"o":"m 107 568 l 107 890 l 67 890 l 83 1006 l 224 1006 l 224 568 l 107 568 m 324 0 l 885 972 l 1053 972 l 492 0 l 324 0 m 1119 0 l 1119 101 q 1181 141 1149 122 q 1241 181 1212 160 q 1297 228 1271 202 q 1341 290 1322 255 q 1326 328 1341 313 q 1290 343 1311 343 q 1252 328 1267 343 q 1236 290 1236 313 l 1119 290 q 1142 375 1119 337 q 1204 437 1165 414 q 1290 460 1243 460 q 1374 437 1336 460 q 1435 375 1413 414 q 1458 290 1458 337 q 1447 240 1458 263 q 1418 197 1436 217 q 1378 156 1400 176 q 1333 117 1356 137 l 1449 117 l 1449 0 l 1119 0 z "},"¼":{"ha":1536,"x_min":67,"x_max":1436,"o":"m 107 568 l 107 890 l 67 890 l 83 1006 l 224 1006 l 224 568 l 107 568 m 324 0 l 885 972 l 1053 972 l 492 0 l 324 0 m 1283 0 l 1283 60 l 1119 60 l 1119 200 l 1271 438 l 1399 438 l 1399 176 l 1436 176 l 1436 60 l 1399 60 l 1399 0 l 1283 0 m 1233 176 l 1294 176 l 1294 275 l 1233 176 z "},"¾":{"ha":1621,"x_min":50,"x_max":1521,"o":"m 205 554 q 96 596 142 554 q 50 701 50 638 l 167 701 q 178 674 167 685 q 205 663 189 663 q 231 674 220 663 q 242 701 242 685 q 223 741 242 722 q 165 760 204 760 l 165 833 q 217 850 205 833 q 230 883 230 867 q 222 903 230 894 q 201 911 213 911 q 182 903 190 911 q 174 883 174 894 l 57 883 q 99 981 57 942 q 201 1019 142 1019 q 304 981 262 1019 q 347 883 347 942 q 340 839 347 860 q 322 799 334 818 q 349 754 340 780 q 358 701 358 728 q 313 596 358 638 q 205 554 267 554 m 408 0 l 969 972 l 1138 972 l 576 0 l 408 0 m 1367 0 l 1367 60 l 1204 60 l 1204 200 l 1356 438 l 1484 438 l 1484 176 l 1521 176 l 1521 60 l 1484 60 l 1484 0 l 1367 0 m 1317 176 l 1379 176 l 1379 275 l 1317 176 z "},"⅛":{"ha":1494,"x_min":67,"x_max":1428,"o":"m 107 568 l 107 890 l 67 890 l 83 1006 l 224 1006 l 224 568 l 107 568 m 324 0 l 885 972 l 1053 972 l 492 0 l 324 0 m 1273 -22 q 1164 23 1209 -22 q 1119 130 1119 67 q 1129 184 1119 158 q 1154 230 1138 210 q 1135 269 1142 248 q 1128 313 1128 291 q 1170 417 1128 375 q 1273 460 1213 460 q 1376 417 1333 460 q 1419 313 1419 375 q 1413 269 1419 291 q 1393 230 1406 248 q 1418 184 1409 210 q 1428 130 1428 158 q 1383 23 1428 67 q 1273 -22 1338 -22 m 1273 93 q 1300 104 1289 93 q 1311 130 1311 115 q 1300 157 1311 146 q 1273 168 1289 168 q 1247 157 1258 168 q 1236 130 1236 146 q 1247 104 1236 115 q 1273 93 1258 93 m 1273 285 q 1294 293 1285 285 q 1303 313 1303 302 q 1294 334 1303 326 q 1273 343 1285 343 q 1253 334 1262 343 q 1244 313 1244 326 q 1253 293 1244 302 q 1273 285 1262 285 z "},"⅜":{"ha":1579,"x_min":50,"x_max":1513,"o":"m 205 554 q 96 596 142 554 q 50 701 50 638 l 167 701 q 178 674 167 685 q 205 663 189 663 q 231 674 220 663 q 242 701 242 685 q 223 741 242 722 q 165 760 204 760 l 165 833 q 217 850 205 833 q 230 883 230 867 q 222 903 230 894 q 201 911 213 911 q 182 903 190 911 q 174 883 174 894 l 57 883 q 99 981 57 942 q 201 1019 142 1019 q 304 981 262 1019 q 347 883 347 942 q 340 839 347 860 q 322 799 334 818 q 349 754 340 780 q 358 701 358 728 q 313 596 358 638 q 205 554 267 554 m 408 0 l 969 972 l 1138 972 l 576 0 l 408 0 m 1358 -22 q 1249 23 1294 -22 q 1204 130 1204 67 q 1214 184 1204 158 q 1239 230 1223 210 q 1219 269 1226 248 q 1213 313 1213 291 q 1255 417 1213 375 q 1358 460 1298 460 q 1461 417 1417 460 q 1504 313 1504 375 q 1497 269 1504 291 q 1478 230 1490 248 q 1503 184 1494 210 q 1513 130 1513 158 q 1468 23 1513 67 q 1358 -22 1423 -22 m 1358 93 q 1385 104 1374 93 q 1396 130 1396 115 q 1385 157 1396 146 q 1358 168 1374 168 q 1332 157 1342 168 q 1321 130 1321 146 q 1332 104 1321 115 q 1358 93 1342 93 m 1358 285 q 1379 293 1370 285 q 1388 313 1388 302 q 1379 334 1388 326 q 1358 343 1370 343 q 1338 334 1347 343 q 1329 313 1329 326 q 1338 293 1329 302 q 1358 285 1347 285 z "},"⅝":{"ha":1661,"x_min":58,"x_max":1594,"o":"m 224 554 q 107 598 156 554 q 58 711 58 642 l 175 711 q 189 677 175 692 q 224 663 203 663 q 259 677 244 663 q 274 711 274 692 q 259 744 274 731 q 224 760 244 757 q 186 761 212 761 q 132 759 160 760 q 80 754 103 757 l 103 1006 l 340 1006 l 340 906 l 210 906 l 210 876 q 342 830 294 876 q 390 711 390 783 q 368 630 390 665 q 307 574 345 594 q 224 554 269 554 m 490 0 l 1051 972 l 1219 972 l 658 0 l 490 0 m 1440 -22 q 1331 23 1376 -22 q 1286 130 1286 67 q 1295 184 1286 158 q 1321 230 1305 210 q 1301 269 1308 248 q 1294 313 1294 291 q 1337 417 1294 375 q 1440 460 1380 460 q 1543 417 1499 460 q 1586 313 1586 375 q 1579 269 1586 291 q 1560 230 1572 248 q 1585 184 1576 210 q 1594 130 1594 158 q 1550 23 1594 67 q 1440 -22 1505 -22 m 1440 93 q 1467 104 1456 93 q 1478 130 1478 115 q 1467 157 1478 146 q 1440 168 1456 168 q 1414 157 1424 168 q 1403 130 1403 146 q 1414 104 1403 115 q 1440 93 1424 93 m 1440 285 q 1461 293 1452 285 q 1469 313 1469 302 q 1461 334 1469 326 q 1440 343 1452 343 q 1420 334 1428 343 q 1411 313 1411 326 q 1420 293 1411 302 q 1440 285 1428 285 z "},"⅞":{"ha":1647,"x_min":83,"x_max":1581,"o":"m 108 568 l 292 888 l 83 888 l 83 1004 l 426 1004 l 426 891 l 242 568 l 108 568 m 476 0 l 1038 972 l 1206 972 l 644 0 l 476 0 m 1426 -22 q 1317 23 1362 -22 q 1272 130 1272 67 q 1282 184 1272 158 q 1307 230 1291 210 q 1288 269 1294 248 q 1281 313 1281 291 q 1323 417 1281 375 q 1426 460 1366 460 q 1529 417 1485 460 q 1572 313 1572 375 q 1565 269 1572 291 q 1546 230 1558 248 q 1571 184 1562 210 q 1581 130 1581 158 q 1536 23 1581 67 q 1426 -22 1491 -22 m 1426 93 q 1453 104 1442 93 q 1464 130 1464 115 q 1453 157 1464 146 q 1426 168 1442 168 q 1400 157 1410 168 q 1389 130 1389 146 q 1400 104 1389 115 q 1426 93 1410 93 m 1426 285 q 1447 293 1438 285 q 1456 313 1456 302 q 1447 334 1456 326 q 1426 343 1438 343 q 1406 334 1415 343 q 1397 313 1397 326 q 1406 293 1397 302 q 1426 285 1415 285 z "},".":{"ha":347,"x_min":56,"x_max":264,"o":"m 160 -18 q 86 12 116 -18 q 56 86 56 42 q 86 160 56 129 q 160 190 116 190 q 233 160 203 190 q 264 86 264 129 q 233 12 264 42 q 160 -18 203 -18 z "},",":{"ha":390,"x_min":56,"x_max":307,"o":"m 56 -78 l 99 157 l 307 157 l 194 -78 l 56 -78 z "},":":{"ha":347,"x_min":56,"x_max":264,"o":"m 160 486 q 86 516 116 486 q 56 590 56 547 q 86 664 56 633 q 160 694 116 694 q 233 664 203 694 q 264 590 264 633 q 233 516 264 547 q 160 486 203 486 m 160 -18 q 86 12 116 -18 q 56 86 56 42 q 86 160 56 129 q 160 190 116 190 q 233 160 203 190 q 264 86 264 129 q 233 12 264 42 q 160 -18 203 -18 z "},";":{"ha":390,"x_min":56,"x_max":307,"o":"m 56 -78 l 99 157 l 307 157 l 194 -78 l 56 -78 m 203 486 q 129 516 159 486 q 99 590 99 547 q 129 664 99 633 q 203 694 159 694 q 276 664 246 694 q 307 590 307 633 q 276 516 307 547 q 203 486 246 486 z "},"…":{"ha":958,"x_min":56,"x_max":875,"o":"m 160 -18 q 86 12 116 -18 q 56 86 56 42 q 86 160 56 129 q 160 190 116 190 q 233 160 203 190 q 264 86 264 129 q 233 12 264 42 q 160 -18 203 -18 m 465 -18 q 391 12 422 -18 q 361 86 361 42 q 391 160 361 129 q 465 190 422 190 q 539 160 508 190 q 569 86 569 129 q 539 12 569 42 q 465 -18 508 -18 m 771 -18 q 697 12 727 -18 q 667 86 667 42 q 697 160 667 129 q 771 190 727 190 q 844 160 814 190 q 875 86 875 129 q 844 12 875 42 q 771 -18 814 -18 z "},"!":{"ha":346,"x_min":56,"x_max":263,"o":"m 72 292 l 72 972 l 246 972 l 246 292 l 72 292 m 160 -18 q 86 13 116 -18 q 56 88 56 43 q 86 160 56 131 q 160 190 116 190 q 233 160 203 190 q 263 88 263 131 q 233 13 263 43 q 160 -18 203 -18 z "},"¡":{"ha":346,"x_min":56,"x_max":263,"o":"m 158 713 q 232 682 202 713 q 263 607 263 652 q 232 534 263 565 q 158 504 202 504 q 86 534 116 504 q 56 607 56 565 q 86 682 56 652 q 158 713 116 713 m 246 403 l 246 -278 l 72 -278 l 72 403 l 246 403 z "},"?":{"ha":808,"x_min":56,"x_max":725,"o":"m 296 278 q 338 432 296 362 q 454 543 381 503 q 500 589 483 559 q 517 657 517 619 q 500 720 517 692 q 454 765 483 749 q 390 782 425 782 q 327 765 356 782 q 281 720 298 749 q 264 657 264 692 l 56 657 q 101 824 56 749 q 222 945 146 900 q 390 990 298 990 q 559 945 483 990 q 680 824 635 900 q 725 657 725 749 q 679 483 725 563 q 553 360 633 403 q 517 326 530 348 q 504 278 504 304 l 296 278 m 411 -18 q 337 13 367 -18 q 307 88 307 43 q 337 160 307 131 q 411 190 367 190 q 484 160 454 190 q 514 88 514 131 q 484 13 514 43 q 411 -18 454 -18 z "},"¿":{"ha":808,"x_min":56,"x_max":725,"o":"m 390 -296 q 222 -251 298 -296 q 101 -130 146 -206 q 56 38 56 -54 q 102 213 56 133 q 228 335 148 292 q 264 368 251 347 q 276 417 276 390 l 485 417 q 443 262 485 333 q 326 151 401 192 q 281 106 297 136 q 264 38 264 75 q 281 -26 264 3 q 327 -71 298 -54 q 390 -87 356 -87 q 454 -71 425 -87 q 500 -26 483 -54 q 517 38 517 3 l 725 38 q 680 -130 725 -54 q 559 -251 635 -206 q 390 -296 483 -296 m 369 504 q 297 534 327 504 q 267 607 267 565 q 297 682 267 652 q 369 713 327 713 q 443 682 413 713 q 474 607 474 652 q 443 534 474 565 q 369 504 413 504 z "},"·":{"ha":319,"x_min":56,"x_max":264,"o":"m 160 313 q 86 343 116 313 q 56 417 56 373 q 86 490 56 460 q 160 521 116 521 q 233 490 203 521 q 264 417 264 460 q 233 343 264 373 q 160 313 203 313 z "},"•":{"ha":389,"x_min":56,"x_max":333,"o":"m 194 278 q 96 318 136 278 q 56 417 56 358 q 96 515 56 474 q 194 556 136 556 q 293 515 252 556 q 333 417 333 474 q 293 318 333 358 q 194 278 252 278 z "},"*":{"ha":510,"x_min":35,"x_max":454,"o":"m 183 574 l 71 656 l 132 739 l 35 769 l 76 903 l 175 871 l 175 972 l 314 972 l 314 871 l 411 903 l 454 769 l 356 739 l 417 656 l 304 574 l 244 657 l 183 574 z "},"#":{"ha":1115,"x_min":56,"x_max":1060,"o":"m 1006 590 l 903 590 l 846 382 l 950 382 l 896 181 l 793 181 l 744 0 l 536 0 l 585 181 l 367 181 l 319 0 l 111 0 l 158 181 l 56 181 l 110 382 l 213 382 l 269 590 l 165 590 l 219 792 l 322 792 l 371 972 l 579 972 l 531 792 l 749 792 l 796 972 l 1004 972 l 957 792 l 1060 792 l 1006 590 m 638 382 l 694 590 l 478 590 l 421 382 l 638 382 z "},"/":{"ha":601,"x_min":56,"x_max":546,"o":"m 546 972 l 264 -78 l 56 -78 l 338 972 l 546 972 z "},"\\":{"ha":600,"x_min":56,"x_max":544,"o":"m 336 -78 l 56 972 l 264 972 l 544 -78 l 336 -78 z "},"(":{"ha":569,"x_min":83,"x_max":500,"o":"m 292 -78 q 173 74 219 -5 q 105 245 127 153 q 83 447 83 337 q 94 558 83 494 q 124 688 105 621 q 169 815 143 756 q 226 917 195 875 q 292 972 258 960 l 500 972 q 446 917 474 959 q 390 817 417 876 q 340 691 363 758 q 305 560 318 624 q 292 447 292 497 q 325 239 292 339 q 406 57 358 138 q 500 -78 454 -25 l 292 -78 z "},")":{"ha":569,"x_min":69,"x_max":486,"o":"m 69 -78 q 164 57 115 -25 q 245 239 212 138 q 278 447 278 339 q 265 560 278 497 q 229 691 251 624 q 180 817 207 758 q 124 917 152 876 q 69 972 95 959 l 278 972 q 343 917 312 960 q 400 815 374 875 q 445 688 426 756 q 475 558 465 621 q 486 447 486 494 q 465 245 486 337 q 397 74 443 153 q 278 -78 351 -5 l 69 -78 z "},"{":{"ha":576,"x_min":83,"x_max":507,"o":"m 419 -78 q 297 -45 352 -78 q 209 43 242 -12 q 176 165 176 98 l 176 335 q 163 363 176 351 q 130 386 149 375 q 97 411 111 397 q 83 447 83 426 q 97 482 83 467 q 130 509 111 497 q 163 533 149 521 q 176 558 176 544 l 176 729 q 209 851 176 796 q 297 939 242 906 q 419 972 352 972 l 507 972 l 507 764 l 419 764 q 402 759 410 764 q 389 747 394 755 q 385 729 385 739 l 385 551 q 369 514 383 530 q 341 482 355 497 q 328 447 328 466 q 341 411 328 426 q 369 381 355 397 q 385 343 383 365 l 385 165 q 389 148 385 156 q 402 135 394 140 q 419 131 410 131 l 507 131 l 507 -78 l 419 -78 z "},"}":{"ha":576,"x_min":69,"x_max":493,"o":"m 69 -78 l 69 131 l 157 131 q 175 135 167 131 q 187 148 183 140 q 192 165 192 156 l 192 343 q 207 381 193 365 q 235 411 222 397 q 249 447 249 426 q 235 482 249 466 q 207 514 222 497 q 192 551 193 530 l 192 729 q 187 747 192 739 q 175 759 183 755 q 157 764 167 764 l 69 764 l 69 972 l 157 972 q 280 939 224 972 q 367 851 335 906 q 400 729 400 796 l 400 558 q 414 533 400 544 q 447 509 428 521 q 479 482 465 497 q 493 447 493 467 q 479 411 493 426 q 447 386 465 397 q 414 363 428 375 q 400 335 400 351 l 400 165 q 367 43 400 98 q 280 -45 335 -12 q 157 -78 224 -78 l 69 -78 z "},"[":{"ha":483,"x_min":83,"x_max":414,"o":"m 414 131 l 414 -78 l 83 -78 l 83 972 l 414 972 l 414 764 l 292 764 l 292 131 l 414 131 z "},"]":{"ha":485,"x_min":69,"x_max":401,"o":"m 69 -78 l 69 131 l 193 131 l 193 764 l 69 764 l 69 972 l 401 972 l 401 -78 l 69 -78 z "},"-":{"ha":611,"x_min":83,"x_max":528,"o":"m 83 521 l 528 521 l 528 313 l 83 313 l 83 521 z "},"­":{"ha":611,"x_min":83,"x_max":528,"o":"m 83 521 l 528 521 l 528 313 l 83 313 l 83 521 z "},"–":{"ha":861,"x_min":83,"x_max":778,"o":"m 83 521 l 778 521 l 778 313 l 83 313 l 83 521 z "},"—":{"ha":1417,"x_min":83,"x_max":1333,"o":"m 83 521 l 1333 521 l 1333 313 l 83 313 l 83 521 z "},"_":{"ha":861,"x_min":83,"x_max":778,"o":"m 83 131 l 778 131 l 778 -78 l 83 -78 l 83 131 z "},"‚":{"ha":363,"x_min":56,"x_max":307,"o":"m 56 -78 l 99 157 l 307 157 l 194 -78 l 56 -78 z "},"„":{"ha":654,"x_min":56,"x_max":599,"o":"m 56 -78 l 99 157 l 307 157 l 194 -78 l 56 -78 m 347 -78 l 390 157 l 599 157 l 486 -78 l 347 -78 z "},"“":{"ha":617,"x_min":83,"x_max":589,"o":"m 83 610 l 196 972 l 335 972 l 292 610 l 83 610 m 338 613 l 450 975 l 589 975 l 546 613 l 338 613 z "},"”":{"ha":617,"x_min":28,"x_max":533,"o":"m 28 610 l 71 972 l 279 972 l 167 610 l 28 610 m 282 610 l 325 972 l 533 972 l 421 610 l 282 610 z "},"ʻ":{"ha":321,"x_min":42,"x_max":293,"o":"m 42 610 l 154 972 l 293 972 l 250 610 l 42 610 z "},"’":{"ha":321,"x_min":28,"x_max":279,"o":"m 28 610 l 71 972 l 279 972 l 167 610 l 28 610 z "},"«":{"ha":875,"x_min":83,"x_max":806,"o":"m 292 181 l 83 417 l 292 652 l 500 652 l 293 417 l 500 181 l 292 181 m 597 181 l 389 417 l 597 652 l 806 652 l 599 417 l 806 181 l 597 181 z "},"»":{"ha":889,"x_min":69,"x_max":792,"o":"m 375 181 l 582 417 l 375 652 l 583 652 l 792 417 l 583 181 l 375 181 m 69 181 l 276 417 l 69 652 l 278 652 l 486 417 l 278 181 l 69 181 z "},"‹":{"ha":569,"x_min":83,"x_max":500,"o":"m 292 181 l 83 417 l 292 652 l 500 652 l 293 417 l 500 181 l 292 181 z "},"›":{"ha":569,"x_min":69,"x_max":486,"o":"m 69 181 l 276 417 l 69 652 l 278 652 l 486 417 l 278 181 l 69 181 z "},"‵":{"ha":418,"x_min":83,"x_max":335,"o":"m 196 610 l 83 972 l 292 972 l 335 610 l 196 610 z "},"\"":{"ha":435,"x_min":42,"x_max":393,"o":"m 42 610 l 42 972 l 181 972 l 181 610 l 42 610 m 254 610 l 254 972 l 393 972 l 393 610 l 254 610 z "},"'":{"ha":222,"x_min":42,"x_max":181,"o":"m 42 610 l 42 972 l 181 972 l 181 610 l 42 610 z "}," ":{"ha":694,"x_min":0,"x_max":0,"o":""}," ":{"ha":333,"x_min":0,"x_max":0,"o":""}," ":{"ha":333,"x_min":0,"x_max":0,"o":""}," ":{"ha":278,"x_min":0,"x_max":0,"o":""},"​":{"ha":0,"x_min":0,"x_max":0,"o":""},"\r":{"ha":833,"x_min":0,"x_max":0,"o":""},"\u0000":{"ha":833,"x_min":0,"x_max":0,"o":""},"¢":{"ha":758,"x_min":56,"x_max":703,"o":"m 335 0 l 335 144 q 192 210 256 161 q 92 331 129 259 q 56 488 56 403 q 92 643 56 572 q 192 764 129 715 q 335 829 256 813 l 335 972 l 474 972 l 474 829 q 606 772 547 815 q 703 668 665 730 l 522 564 q 471 610 503 593 q 404 628 440 628 q 334 609 366 628 q 283 558 302 590 q 264 488 264 526 q 283 416 264 449 q 334 365 302 384 q 404 346 366 346 q 471 363 440 346 q 522 410 503 381 l 703 306 q 606 202 665 244 q 474 144 547 159 l 474 0 l 335 0 z "},"¤":{"ha":729,"x_min":56,"x_max":674,"o":"m 154 177 l 56 276 l 147 367 q 120 445 127 404 q 121 527 114 486 q 149 605 128 568 l 56 698 l 154 795 l 246 703 q 323 730 282 724 q 406 731 365 737 q 485 705 448 724 l 576 795 l 674 698 l 583 608 q 612 528 605 570 q 613 444 619 486 q 585 365 606 402 l 674 276 l 576 177 l 488 266 q 407 239 449 246 q 324 239 365 232 q 244 267 283 246 l 154 177 m 367 374 q 422 390 397 375 q 462 429 447 404 q 476 485 476 454 q 461 543 476 519 q 420 581 445 567 q 367 595 395 594 q 309 580 334 596 q 270 539 284 564 q 256 485 256 513 q 270 429 256 455 q 311 389 285 403 q 367 374 336 374 z "},"$":{"ha":850,"x_min":56,"x_max":794,"o":"m 425 781 q 348 769 385 781 q 288 735 311 756 q 264 686 264 713 q 286 630 264 649 q 345 604 308 612 q 425 590 381 597 q 609 538 525 576 q 744 438 693 501 q 794 286 794 376 q 754 143 794 206 q 646 40 714 81 q 494 -12 578 0 l 494 -156 l 356 -156 l 356 -12 q 226 25 287 -3 q 122 98 166 53 q 56 200 77 142 l 251 272 q 282 233 258 252 q 343 202 306 215 q 425 190 380 190 q 503 202 467 190 q 563 236 540 215 q 586 286 586 258 q 562 334 586 315 q 501 365 538 353 q 425 382 464 376 q 236 432 319 397 q 104 529 152 467 q 56 686 56 591 q 96 830 56 767 q 204 933 136 893 q 356 986 272 974 l 356 1128 l 494 1128 l 494 986 q 623 948 563 976 q 729 875 684 919 q 794 771 774 830 l 599 700 q 568 739 592 720 q 507 769 544 757 q 425 781 470 781 z "},"€":{"ha":761,"x_min":56,"x_max":706,"o":"m 706 -11 q 528 -8 613 -26 q 373 56 444 10 q 250 169 302 101 q 169 324 198 238 l 56 324 l 56 463 l 144 463 l 144 507 l 56 507 l 56 646 l 169 646 q 249 802 197 733 q 373 917 301 871 q 528 980 444 963 q 706 983 613 998 l 706 768 q 611 781 657 783 q 526 762 566 779 q 452 716 485 745 q 396 646 419 686 l 561 646 l 561 507 l 353 507 l 354 463 l 561 463 l 561 324 l 397 324 q 456 253 422 283 q 530 208 490 224 q 615 191 570 192 q 706 204 659 190 l 706 -11 z "},"£":{"ha":843,"x_min":56,"x_max":788,"o":"m 72 0 l 72 208 q 141 217 105 208 q 206 240 177 225 q 245 278 234 256 q 239 328 256 300 q 212 365 229 344 q 174 408 194 385 q 132 458 153 432 q 94 511 111 483 q 66 568 76 539 q 56 625 56 597 q 84 766 56 700 q 163 883 113 832 q 280 962 214 933 q 421 990 346 990 q 563 962 497 990 q 680 883 629 933 q 759 767 731 833 q 788 625 788 701 l 579 625 q 558 704 579 668 q 501 761 537 740 q 421 782 465 782 q 342 761 378 782 q 285 704 306 740 q 264 625 264 668 q 278 560 264 589 q 314 504 292 531 q 360 452 335 478 q 407 399 385 427 q 443 337 429 370 q 457 261 457 303 q 456 240 457 251 q 452 221 454 230 q 450 208 451 213 l 769 208 l 769 0 l 72 0 m 72 308 l 72 447 l 614 447 l 614 308 l 72 308 z "},"¥":{"ha":967,"x_min":42,"x_max":925,"o":"m 379 0 l 379 86 l 231 86 l 231 225 l 379 225 l 379 271 l 231 271 l 231 410 l 379 410 l 379 438 l 42 972 l 288 972 l 483 664 l 679 972 l 925 972 l 588 438 l 588 410 l 736 410 l 736 271 l 588 271 l 588 225 l 736 225 l 736 86 l 588 86 l 588 0 l 379 0 z "},"+":{"ha":806,"x_min":56,"x_max":750,"o":"m 299 69 l 299 313 l 56 313 l 56 521 l 299 521 l 299 764 l 507 764 l 507 521 l 750 521 l 750 313 l 507 313 l 507 69 l 299 69 z "},"−":{"ha":806,"x_min":56,"x_max":750,"o":"m 56 313 l 56 521 l 750 521 l 750 313 l 56 313 z "},"×":{"ha":749,"x_min":56,"x_max":693,"o":"m 203 97 l 56 244 l 226 417 l 56 589 l 203 736 l 374 564 l 546 736 l 693 589 l 521 417 l 693 244 l 546 97 l 374 269 l 203 97 z "},"÷":{"ha":806,"x_min":56,"x_max":750,"o":"m 56 313 l 56 521 l 750 521 l 750 313 l 56 313 m 403 771 q 476 740 446 771 q 507 667 507 710 q 476 593 507 624 q 403 563 446 563 q 329 593 359 563 q 299 667 299 624 q 329 740 299 710 q 403 771 359 771 m 403 271 q 476 240 446 271 q 507 167 507 210 q 476 93 507 124 q 403 63 446 63 q 329 93 359 63 q 299 167 299 124 q 329 240 299 210 q 403 271 359 271 z "},"=":{"ha":806,"x_min":56,"x_max":750,"o":"m 56 158 l 56 367 l 750 367 l 750 158 l 56 158 m 56 467 l 56 675 l 750 675 l 750 467 l 56 467 z "},"≠":{"ha":806,"x_min":56,"x_max":750,"o":"m 629 821 l 586 675 l 750 675 l 750 467 l 525 467 l 496 367 l 750 367 l 750 158 l 435 158 l 392 13 l 175 13 l 218 158 l 56 158 l 56 367 l 279 367 l 308 467 l 56 467 l 56 675 l 369 675 l 413 821 l 629 821 z "},">":{"ha":806,"x_min":56,"x_max":750,"o":"m 56 53 l 56 269 l 601 417 l 56 564 l 56 781 l 750 590 l 750 242 l 56 53 z "},"<":{"ha":806,"x_min":56,"x_max":750,"o":"m 750 44 l 56 242 l 56 590 l 750 789 l 750 572 l 204 417 l 750 261 l 750 44 z "},"≥":{"ha":806,"x_min":56,"x_max":750,"o":"m 56 244 l 56 461 l 601 608 l 56 756 l 56 972 l 750 782 l 750 433 l 56 244 m 56 0 l 56 208 l 750 208 l 750 0 l 56 0 z "},"≤":{"ha":806,"x_min":56,"x_max":750,"o":"m 750 228 l 56 425 l 56 774 l 750 972 l 750 756 l 204 600 l 750 444 l 750 228 m 56 0 l 56 208 l 750 208 l 750 0 l 56 0 z "},"±":{"ha":806,"x_min":56,"x_max":750,"o":"m 299 278 l 299 521 l 56 521 l 56 729 l 299 729 l 299 972 l 507 972 l 507 729 l 750 729 l 750 521 l 507 521 l 507 278 l 299 278 m 56 0 l 56 208 l 750 208 l 750 0 l 56 0 z "},"≈":{"ha":937,"x_min":21,"x_max":860,"o":"m 664 457 q 565 473 617 457 q 459 510 512 489 q 358 547 406 531 q 274 563 310 563 q 248 554 256 563 q 236 531 239 545 q 233 503 233 517 l 29 508 q 49 630 21 574 q 131 722 78 687 q 251 757 185 757 q 345 740 298 757 q 438 701 392 724 q 526 663 483 679 q 604 646 568 646 q 631 654 622 646 q 644 677 640 663 q 647 708 647 691 l 851 703 q 840 582 860 638 q 775 491 820 526 q 664 457 731 457 m 664 76 q 565 92 617 76 q 459 129 512 108 q 358 166 406 150 q 274 182 310 182 q 248 173 256 182 q 236 151 239 165 q 233 122 233 137 l 29 128 q 49 250 21 193 q 131 341 78 306 q 251 376 185 376 q 345 360 298 376 q 438 321 392 343 q 526 282 483 299 q 604 265 568 265 q 631 274 622 265 q 644 296 640 282 q 647 328 647 310 l 851 322 q 840 201 860 257 q 775 111 820 145 q 664 76 731 76 z "},"~":{"ha":937,"x_min":49,"x_max":888,"o":"m 692 267 q 592 283 645 267 q 486 319 540 299 q 386 356 433 340 q 301 372 338 372 q 275 364 284 372 q 264 341 267 355 q 261 313 261 327 l 57 318 q 77 440 49 383 q 159 532 106 497 q 279 567 213 567 q 373 550 326 567 q 465 511 419 533 q 553 472 511 489 q 632 456 596 456 q 659 464 649 456 q 672 486 668 472 q 675 518 675 501 l 879 513 q 868 391 888 447 q 803 301 848 335 q 692 267 758 267 z "},"¬":{"ha":729,"x_min":56,"x_max":674,"o":"m 465 191 l 465 434 l 56 434 l 56 642 l 674 642 l 674 191 l 465 191 z "},"^":{"ha":731,"x_min":56,"x_max":675,"o":"m 56 694 l 219 1146 l 511 1146 l 675 694 l 453 694 l 365 936 l 278 694 l 56 694 z "},"∅":{"ha":806,"x_min":56,"x_max":750,"o":"m 264 -60 l 119 24 l 157 89 q 83 206 110 139 q 56 347 56 272 q 83 490 56 424 q 157 607 110 556 q 268 685 205 657 q 403 714 331 714 q 457 710 430 714 q 507 697 483 706 l 542 756 l 686 672 l 649 607 q 723 490 696 557 q 750 347 750 424 q 723 206 750 272 q 648 89 696 140 q 538 10 601 39 q 403 -18 475 -18 q 349 -14 375 -18 q 297 -1 322 -10 l 264 -60 m 260 264 l 414 532 q 349 515 379 531 q 296 471 319 499 q 260 409 273 444 q 247 335 247 374 q 250 298 247 315 q 260 264 253 281 m 392 164 q 458 181 428 165 q 511 224 488 197 q 546 286 533 251 q 558 360 558 321 q 555 398 558 380 q 546 432 551 415 l 392 164 z "},"∞":{"ha":1075,"x_min":56,"x_max":1019,"o":"m 324 158 q 180 202 240 165 q 88 297 119 239 q 56 426 56 355 q 89 563 56 502 q 183 659 123 624 q 324 694 244 694 q 405 682 367 694 q 475 645 442 669 q 538 586 508 621 q 602 646 569 622 q 674 682 636 670 q 753 694 711 694 q 897 657 838 694 q 988 559 957 620 q 1019 426 1019 498 q 986 289 1019 350 q 893 193 953 228 q 753 158 833 158 q 671 171 709 158 q 600 207 633 183 q 538 265 567 231 q 473 204 507 229 q 402 167 440 179 q 324 158 365 155 m 321 347 q 362 363 341 347 q 400 397 383 378 q 424 426 417 415 q 398 458 415 439 q 361 491 381 477 q 321 504 340 506 q 263 478 283 503 q 243 426 243 453 q 264 370 243 393 q 321 347 285 347 m 756 347 q 814 373 794 349 q 833 426 833 397 q 814 481 833 457 q 764 506 794 506 q 719 493 740 506 q 682 461 699 480 q 653 426 665 443 q 670 404 659 417 q 696 377 681 390 q 726 355 710 364 q 756 347 741 347 z "},"∫":{"ha":819,"x_min":52,"x_max":768,"o":"m 279 -18 q 161 11 213 -18 q 81 93 110 41 q 56 213 52 145 l 183 203 q 191 163 188 179 q 218 146 195 146 q 257 158 241 146 q 275 192 272 170 l 340 831 q 378 911 347 875 q 456 969 410 947 q 550 990 502 990 q 663 957 613 990 q 741 871 713 924 q 763 758 768 818 l 647 769 q 625 816 642 805 q 585 824 607 828 q 557 810 569 822 q 542 775 545 798 l 478 140 q 400 18 457 55 q 279 -18 344 -18 z "},"∏":{"ha":889,"x_min":56,"x_max":833,"o":"m 56 972 l 833 972 l 833 764 l 56 764 l 56 972 m 132 829 l 340 829 l 340 0 l 132 0 l 132 829 m 549 829 l 757 829 l 757 0 l 549 0 l 549 829 z "},"∑":{"ha":629,"x_min":56,"x_max":588,"o":"m 56 0 l 56 208 l 197 485 l 56 761 l 56 969 l 588 969 l 588 761 l 290 761 l 431 485 l 290 208 l 588 208 l 588 0 l 56 0 z "},"√":{"ha":957,"x_min":56,"x_max":901,"o":"m 638 972 l 901 972 l 901 764 l 783 764 l 504 0 l 235 0 l 56 492 l 276 492 l 369 239 l 638 972 z "},"∂":{"ha":810,"x_min":56,"x_max":754,"o":"m 406 -18 q 230 29 309 -18 q 103 156 150 76 q 56 331 56 235 q 83 466 56 403 q 158 578 110 530 q 270 653 206 626 q 406 681 333 681 q 434 680 419 681 q 461 675 448 678 q 431 735 447 703 q 391 796 415 767 q 330 843 367 825 q 236 861 293 861 l 235 1069 q 451 1011 355 1069 q 615 851 547 952 q 718 623 683 751 q 754 356 754 494 q 709 162 754 247 q 585 30 664 78 q 406 -18 506 -18 m 406 190 q 476 209 444 190 q 527 260 508 228 q 546 331 546 292 q 527 402 546 369 q 476 453 508 434 q 406 472 444 472 q 334 453 367 472 q 283 402 302 434 q 264 331 264 369 q 283 260 264 292 q 334 209 302 228 q 406 190 367 190 z "},"µ":{"ha":817,"x_min":56,"x_max":761,"o":"m 56 -300 l 56 694 l 264 694 l 264 347 q 283 264 264 301 q 335 204 301 226 q 415 182 369 182 q 491 204 460 182 q 537 264 522 226 q 553 347 553 301 l 553 694 l 761 694 l 761 0 l 553 0 l 553 64 q 477 4 521 28 q 378 -19 434 -19 q 318 -14 347 -19 q 264 0 290 -9 l 264 -300 l 56 -300 z "},"%":{"ha":1132,"x_min":56,"x_max":1076,"o":"m 165 0 l 726 972 l 967 972 l 406 0 l 165 0 m 288 528 q 172 558 224 528 q 87 641 119 589 q 56 758 56 694 q 88 877 56 825 q 173 959 120 929 q 288 989 226 989 q 403 958 351 989 q 487 875 456 928 q 518 758 518 823 q 486 640 518 692 q 401 558 453 588 q 288 528 349 528 m 288 667 q 352 693 325 667 q 379 758 379 720 q 352 824 379 797 q 288 850 325 850 q 222 824 249 850 q 194 758 194 797 q 222 693 194 720 q 288 667 249 667 m 844 -18 q 727 14 780 -18 q 644 99 675 47 q 614 213 614 152 q 646 331 614 278 q 731 414 678 383 q 844 444 783 444 q 964 412 911 444 q 1046 326 1016 379 q 1076 213 1076 274 q 1045 97 1076 149 q 961 13 1014 44 q 844 -18 908 -18 m 844 121 q 910 148 883 121 q 938 213 938 175 q 910 278 938 251 q 844 306 883 306 q 780 278 807 306 q 753 213 753 251 q 780 148 753 175 q 844 121 807 121 z "},"‰":{"ha":1632,"x_min":56,"x_max":1576,"o":"m 165 0 l 726 972 l 967 972 l 406 0 l 165 0 m 288 528 q 172 558 224 528 q 87 641 119 589 q 56 758 56 694 q 88 877 56 825 q 173 959 120 929 q 288 989 226 989 q 403 958 351 989 q 487 875 456 927 q 518 758 518 822 q 486 640 518 692 q 401 558 453 588 q 288 528 349 528 m 288 667 q 352 693 325 667 q 379 758 379 720 q 352 824 379 797 q 288 850 325 850 q 222 824 249 850 q 194 758 194 797 q 222 693 194 720 q 288 667 249 667 m 844 -18 q 727 14 780 -18 q 644 99 675 47 q 614 213 614 152 q 646 331 614 278 q 731 414 678 383 q 844 444 783 444 q 964 412 911 444 q 1046 326 1016 379 q 1076 213 1076 274 q 1045 97 1076 149 q 961 13 1014 44 q 844 -18 908 -18 m 844 121 q 910 148 883 121 q 938 213 938 175 q 910 278 938 251 q 844 306 883 306 q 780 278 807 306 q 753 213 753 251 q 780 148 753 175 q 844 121 807 121 m 1344 -18 q 1227 14 1280 -18 q 1144 99 1175 47 q 1114 213 1114 152 q 1146 331 1114 278 q 1231 414 1178 383 q 1344 444 1283 444 q 1464 412 1411 444 q 1546 326 1516 379 q 1576 213 1576 274 q 1545 97 1576 149 q 1461 13 1514 44 q 1344 -18 1408 -18 m 1344 121 q 1410 148 1383 121 q 1438 213 1438 175 q 1410 278 1438 251 q 1344 306 1383 306 q 1280 278 1307 306 q 1253 213 1253 251 q 1280 148 1253 175 q 1344 121 1307 121 z "},"↑":{"ha":878,"x_min":56,"x_max":822,"o":"m 335 81 l 335 561 l 203 431 l 56 578 l 439 961 l 822 578 l 675 431 l 543 561 l 543 81 l 335 81 z "},"↗":{"ha":807,"x_min":56,"x_max":751,"o":"m 203 174 l 56 321 l 396 660 l 208 660 l 208 868 l 751 868 l 751 326 l 543 326 l 543 513 l 203 174 z "},"→":{"ha":992,"x_min":56,"x_max":936,"o":"m 553 138 l 406 285 l 536 417 l 56 417 l 56 625 l 536 625 l 406 757 l 553 904 l 936 521 l 553 138 z "},"↘":{"ha":807,"x_min":56,"x_max":751,"o":"m 210 174 l 210 382 l 396 382 l 56 721 l 203 868 l 543 529 l 543 715 l 751 715 l 751 174 l 210 174 z "},"↓":{"ha":876,"x_min":56,"x_max":821,"o":"m 438 81 l 56 464 l 203 611 l 333 481 l 333 961 l 542 961 l 542 481 l 674 611 l 821 464 l 438 81 z "},"↙":{"ha":807,"x_min":56,"x_max":751,"o":"m 56 174 l 56 715 l 264 715 l 264 529 l 604 868 l 751 721 l 411 382 l 597 382 l 597 174 l 56 174 z "},"←":{"ha":990,"x_min":56,"x_max":935,"o":"m 439 138 l 56 521 l 439 904 l 586 757 l 454 625 l 935 625 l 935 417 l 454 417 l 586 285 l 439 138 z "},"↖":{"ha":807,"x_min":56,"x_max":751,"o":"m 604 173 l 264 513 l 264 327 l 56 327 l 56 869 l 597 869 l 597 660 l 411 660 l 751 320 l 604 173 z "},"↔":{"ha":1339,"x_min":56,"x_max":1283,"o":"m 439 138 l 56 521 l 439 904 l 586 757 l 454 625 l 883 625 l 753 757 l 900 904 l 1283 521 l 900 138 l 753 285 l 883 417 l 454 417 l 586 285 l 439 138 z "},"↕":{"ha":878,"x_min":56,"x_max":822,"o":"m 439 -93 l 56 290 l 203 438 l 335 307 l 335 735 l 203 604 l 56 751 l 439 1135 l 822 751 l 675 604 l 543 735 l 543 307 l 675 438 l 822 290 l 439 -93 z "},"◊":{"ha":833,"x_min":42,"x_max":792,"o":"m 228 0 l 42 488 l 226 972 l 607 972 l 792 488 l 606 0 l 228 0 m 417 93 l 574 488 l 417 882 l 261 488 l 417 93 z "},"@":{"ha":1313,"x_min":56,"x_max":1257,"o":"m 656 -199 q 423 -155 531 -199 q 231 -33 314 -112 q 102 151 149 45 q 56 382 56 257 q 102 616 56 507 q 231 808 149 725 q 423 937 314 890 q 656 983 532 983 q 890 936 781 983 q 1082 807 999 890 q 1210 615 1164 724 q 1257 382 1257 506 q 1240 243 1257 310 q 1188 122 1222 176 q 1105 37 1154 69 q 990 6 1055 6 q 900 24 947 6 q 818 74 853 43 q 773 142 783 106 q 714 115 747 125 q 644 106 681 106 q 505 143 568 106 q 405 243 442 181 q 368 382 368 306 q 405 521 368 458 q 505 621 442 584 q 644 658 568 658 q 718 651 676 658 q 784 631 760 644 l 784 644 l 937 609 l 937 260 q 947 226 937 238 q 976 214 956 214 q 1019 245 1003 214 q 1042 316 1035 276 q 1049 382 1049 356 q 1018 535 1049 464 q 933 661 987 607 q 808 745 878 715 q 656 775 737 775 q 505 744 576 775 q 379 660 433 714 q 294 535 325 606 q 264 382 264 464 q 294 232 264 301 q 378 114 324 164 q 503 37 432 65 q 656 10 574 10 l 656 -199 m 662 258 q 724 275 696 258 q 769 320 752 292 q 786 382 786 348 q 769 445 786 417 q 724 490 752 473 q 662 506 696 506 q 600 490 628 506 q 555 445 572 473 q 538 382 538 417 q 555 320 538 348 q 600 275 572 292 q 662 258 628 258 z "},"&":{"ha":999,"x_min":56,"x_max":943,"o":"m 364 -18 q 207 25 277 -18 q 97 138 138 67 q 56 290 56 208 q 64 368 56 334 q 90 432 72 401 q 139 498 108 463 q 217 579 170 533 q 176 625 193 603 q 148 668 159 646 q 133 714 138 690 q 128 767 128 738 q 160 889 128 835 q 247 973 193 942 q 364 1004 301 1004 q 483 973 429 1004 q 569 887 537 941 q 601 767 601 833 q 596 713 601 737 q 580 667 591 688 q 552 624 569 645 q 511 579 535 603 l 653 438 l 840 625 l 840 331 l 800 290 l 943 147 l 796 0 l 653 143 q 570 65 606 96 q 504 15 535 33 q 440 -10 473 -3 q 364 -18 407 -18 m 364 190 q 397 195 383 190 q 426 213 411 201 q 459 243 440 224 q 506 290 478 263 l 364 432 q 315 384 335 403 q 285 351 296 365 q 269 323 274 337 q 264 290 264 309 q 278 238 264 260 q 316 203 293 215 q 364 190 339 190 m 364 694 q 399 728 387 717 q 415 748 411 739 q 419 771 419 756 q 401 813 419 799 q 364 826 382 826 q 326 811 343 826 q 308 771 308 795 q 314 747 308 756 q 332 725 319 737 q 364 694 344 714 z "},"¶":{"ha":810,"x_min":56,"x_max":754,"o":"m 292 -210 l 292 499 q 173 531 226 499 q 88 616 119 563 q 56 736 56 670 q 88 855 56 801 q 173 940 119 908 q 292 972 226 972 l 500 972 l 500 -210 l 292 -210 m 546 -210 l 546 972 l 754 972 l 754 -210 l 546 -210 z "},"§":{"ha":775,"x_min":83,"x_max":692,"o":"m 376 -247 q 226 -214 295 -247 q 113 -118 158 -181 l 276 -21 q 297 -42 285 -31 q 325 -61 309 -53 q 358 -71 340 -69 q 402 -69 383 -73 q 432 -54 421 -65 q 443 -21 443 -42 q 424 10 443 -1 q 381 25 405 20 q 340 31 356 29 q 210 86 268 38 q 117 204 151 134 q 83 347 83 274 q 95 438 83 394 q 130 519 108 482 q 183 586 153 557 q 150 642 163 611 q 138 710 138 674 q 174 833 138 781 q 270 914 211 885 q 399 942 330 942 q 549 908 480 942 q 663 813 618 875 l 499 715 q 478 736 490 726 q 450 755 466 747 q 417 765 435 763 q 373 764 392 767 q 343 748 354 760 q 332 715 332 737 q 350 686 332 696 q 391 672 367 676 q 431 665 414 668 q 566 607 507 651 q 658 495 625 563 q 692 347 692 428 q 679 257 692 300 q 644 176 667 213 q 590 110 622 139 q 625 53 613 84 q 638 -15 638 22 q 601 -139 638 -87 q 505 -219 565 -191 q 376 -247 445 -247 m 397 210 q 453 230 427 210 q 494 282 478 250 q 510 347 510 313 q 493 418 510 388 q 446 467 477 449 q 372 485 415 485 q 321 464 346 485 q 281 411 297 442 q 265 347 265 379 q 281 278 265 309 q 327 228 297 247 q 397 210 356 210 z "},"©":{"ha":1363,"x_min":56,"x_max":1307,"o":"m 681 -260 q 438 -211 551 -260 q 239 -77 324 -162 q 104 122 153 9 q 56 365 56 235 q 104 608 56 495 q 239 807 153 722 q 438 942 324 893 q 681 990 551 990 q 924 942 810 990 q 1124 808 1038 894 q 1258 609 1210 722 q 1307 366 1307 496 q 1258 122 1307 235 q 1124 -77 1210 9 q 924 -211 1038 -162 q 681 -260 810 -260 m 681 -51 q 845 -18 769 -51 q 978 73 922 15 q 1067 206 1035 131 q 1099 365 1099 281 q 1066 526 1099 451 q 977 659 1034 601 q 844 749 920 717 q 681 782 768 782 q 516 749 592 782 q 384 658 440 716 q 295 525 327 600 q 264 365 264 450 q 297 201 264 277 q 388 68 330 125 q 521 -20 446 12 q 681 -51 597 -51 m 771 246 l 958 144 q 838 40 910 79 q 681 0 766 0 q 506 49 585 0 q 380 182 427 99 q 333 365 333 265 q 360 508 333 442 q 435 625 388 574 q 546 703 483 675 q 681 732 609 732 q 838 692 766 732 q 958 586 910 653 l 771 485 q 729 514 752 503 q 681 524 706 524 q 610 501 641 524 q 560 443 578 479 q 542 366 542 407 q 560 289 542 324 q 610 231 578 253 q 681 208 641 208 q 729 218 706 208 q 771 246 752 228 z "},"®":{"ha":829,"x_min":42,"x_max":788,"o":"m 414 253 q 269 282 337 253 q 151 362 202 310 q 70 481 99 413 q 42 626 42 549 q 70 771 42 703 q 151 890 99 838 q 269 970 202 941 q 414 999 337 999 q 560 969 492 999 q 680 888 628 940 q 759 769 731 836 q 788 626 788 702 q 758 480 788 548 q 677 361 728 412 q 558 281 625 310 q 414 253 490 253 m 414 399 q 529 429 477 399 q 611 511 581 460 q 642 626 642 563 q 611 740 642 689 q 529 822 581 792 q 414 853 477 853 q 300 822 351 853 q 218 740 249 792 q 188 626 188 689 q 218 511 188 563 q 300 429 249 460 q 414 399 351 399 m 313 485 l 313 790 l 433 790 q 500 761 473 790 q 528 692 528 733 q 515 642 528 665 q 482 607 503 619 l 553 485 l 465 485 l 401 593 l 389 593 l 389 485 l 313 485 m 389 669 l 433 669 q 446 676 441 669 q 451 692 451 683 q 446 708 451 701 q 433 714 441 714 l 389 714 l 389 669 z "},"™":{"ha":2142,"x_min":56,"x_max":2058,"o":"m 819 972 l 819 764 l 542 764 l 542 0 l 333 0 l 333 764 l 56 764 l 56 972 l 819 972 m 888 0 l 1077 972 l 1255 972 l 1473 399 l 1691 972 l 1869 972 l 2058 0 l 1845 0 l 1744 525 l 1545 0 l 1401 0 l 1202 525 l 1101 0 l 888 0 z "},"°":{"ha":713,"x_min":56,"x_max":657,"o":"m 357 450 q 203 492 272 450 q 95 602 135 534 q 56 750 56 671 q 96 900 56 831 q 205 1009 136 968 q 357 1050 273 1050 q 511 1008 443 1050 q 618 898 578 966 q 657 750 657 829 q 616 596 657 664 q 506 489 574 528 q 357 450 438 450 m 357 658 q 422 685 394 658 q 449 750 449 712 q 422 815 449 789 q 357 842 394 842 q 291 815 319 842 q 264 750 264 789 q 291 685 264 712 q 357 658 319 658 z "},"|":{"ha":403,"x_min":97,"x_max":306,"o":"m 97 972 l 306 972 l 306 -210 l 97 -210 l 97 972 z "},"¦":{"ha":375,"x_min":83,"x_max":292,"o":"m 83 311 l 292 311 l 292 -210 l 83 -210 l 83 311 m 83 972 l 292 972 l 292 451 l 83 451 l 83 972 z "},"†":{"ha":622,"x_min":56,"x_max":567,"o":"m 56 694 l 56 903 l 207 903 l 207 1042 l 415 1042 l 415 903 l 567 903 l 567 694 l 415 694 l 415 389 l 207 389 l 207 694 l 56 694 z "},"‡":{"ha":622,"x_min":56,"x_max":567,"o":"m 56 488 l 56 694 l 207 694 l 207 764 l 56 764 l 56 972 l 207 972 l 207 1042 l 415 1042 l 415 972 l 567 972 l 567 764 l 415 764 l 415 694 l 567 694 l 567 488 l 415 488 l 415 389 l 207 389 l 207 488 l 56 488 z "},"�":{"ha":1132,"x_min":83,"x_max":1049,"o":"m 567 -18 q 493 -4 529 -18 q 428 39 457 10 l 140 326 q 97 392 111 356 q 83 465 83 428 q 98 539 83 503 q 140 603 113 575 l 428 890 q 493 933 457 919 q 567 947 529 947 q 640 933 604 947 q 704 890 675 919 l 992 603 q 1035 538 1021 574 q 1049 465 1049 503 q 1035 392 1049 428 q 992 326 1021 356 l 704 39 q 640 -3 676 11 q 567 -18 604 -18 m 569 160 q 619 180 599 160 q 639 231 639 201 q 619 279 639 259 q 569 299 599 299 q 520 279 540 299 q 500 231 500 259 q 520 180 500 201 q 569 160 540 160 m 496 356 l 635 356 l 635 357 q 639 372 635 365 q 650 383 643 379 q 720 452 694 408 q 746 547 746 495 q 721 641 746 599 q 653 708 696 683 q 560 733 611 733 q 466 708 508 733 q 399 641 424 683 q 374 547 374 599 l 513 547 q 526 581 513 567 q 560 594 540 594 q 593 581 580 594 q 607 547 607 567 q 601 523 607 534 q 585 506 595 511 q 519 444 542 485 q 496 357 496 404 l 496 356 z "},"ʼ":{"ha":418,"x_min":28,"x_max":279,"o":"m 28 610 l 71 972 l 279 972 l 167 610 l 28 610 z "},"̈":{"ha":0,"x_min":278,"x_max":793,"o":"m 383 781 q 308 810 339 781 q 278 885 278 840 q 308 959 278 928 q 383 989 339 989 q 457 959 427 989 q 488 885 488 928 q 457 810 488 840 q 383 781 427 781 m 689 781 q 614 810 644 781 q 583 885 583 840 q 614 959 583 928 q 689 989 644 989 q 763 959 733 989 q 793 885 793 928 q 763 810 793 840 q 689 781 733 781 z "},"̇":{"ha":0,"x_min":278,"x_max":488,"o":"m 383 781 q 308 810 339 781 q 278 885 278 840 q 308 959 278 928 q 383 989 339 989 q 457 959 427 989 q 488 885 488 928 q 457 810 488 840 q 383 781 427 781 z "},"̀":{"ha":0,"x_min":222,"x_max":486,"o":"m 222 990 l 431 990 l 486 790 l 375 790 l 222 990 z "},"́":{"ha":0,"x_min":333,"x_max":597,"o":"m 333 790 l 389 990 l 597 990 l 444 790 l 333 790 z "},"̂":{"ha":0,"x_min":278,"x_max":626,"o":"m 347 972 l 557 972 l 626 810 l 493 810 l 453 908 l 411 810 l 278 810 l 347 972 z "},"̊":{"ha":0,"x_min":278,"x_max":556,"o":"m 417 751 q 319 793 360 751 q 278 892 278 835 q 297 960 278 929 q 347 1010 315 992 q 417 1029 378 1029 q 515 989 474 1029 q 556 892 556 948 q 515 792 556 833 q 417 751 474 751 m 417 828 q 461 846 443 828 q 479 892 479 865 q 461 935 479 917 q 417 953 443 953 q 373 935 391 953 q 354 892 354 917 q 373 846 354 865 q 417 828 391 828 z "},"̃":{"ha":0,"x_min":202,"x_max":708,"o":"m 563 762 q 499 781 536 762 q 425 823 462 800 q 363 858 389 845 q 333 859 338 871 q 332 835 329 847 q 340 802 334 823 l 224 770 q 211 881 202 832 q 254 959 219 931 q 346 988 289 988 q 405 973 371 988 q 473 939 439 958 q 532 905 506 919 q 564 890 557 890 q 579 898 577 890 q 576 919 581 906 q 567 945 572 932 l 686 984 q 697 869 708 919 q 651 790 687 819 q 563 762 616 762 z "},"̧":{"ha":0,"x_min":278,"x_max":632,"o":"m 278 -212 l 278 -61 l 367 -61 q 420 -44 394 -61 q 464 -1 447 -27 q 481 51 481 24 l 481 140 l 632 140 l 632 54 q 596 -80 632 -19 q 499 -176 560 -140 q 364 -212 438 -212 l 278 -212 z "},"¨":{"ha":1071,"x_min":278,"x_max":793,"o":"m 383 781 q 308 810 339 781 q 278 885 278 840 q 308 959 278 928 q 383 989 339 989 q 457 959 427 989 q 488 885 488 928 q 457 810 488 840 q 383 781 427 781 m 689 781 q 614 810 644 781 q 583 885 583 840 q 614 959 583 928 q 689 989 644 989 q 763 959 733 989 q 793 885 793 928 q 763 810 793 840 q 689 781 733 781 z "},"˙":{"ha":765,"x_min":278,"x_max":488,"o":"m 383 781 q 308 810 339 781 q 278 885 278 840 q 308 959 278 928 q 383 989 339 989 q 457 959 427 989 q 488 885 488 928 q 457 810 488 840 q 383 781 427 781 z "},"`":{"ha":819,"x_min":222,"x_max":486,"o":"m 222 990 l 431 990 l 486 790 l 375 790 l 222 990 z "},"´":{"ha":819,"x_min":333,"x_max":597,"o":"m 333 790 l 389 990 l 597 990 l 444 790 l 333 790 z "},"˝":{"ha":688,"x_min":340,"x_max":701,"o":"m 340 790 l 396 990 l 604 990 l 451 790 l 340 790 m 437 1086 l 492 1286 l 701 1286 l 548 1086 l 437 1086 z "},"ˆ":{"ha":904,"x_min":278,"x_max":626,"o":"m 347 972 l 557 972 l 626 810 l 493 810 l 453 908 l 411 810 l 278 810 l 347 972 z "},"ˇ":{"ha":515,"x_min":83,"x_max":432,"o":"m 153 810 l 83 972 l 217 972 l 258 874 l 299 972 l 432 972 l 363 810 l 153 810 z "},"˘":{"ha":794,"x_min":167,"x_max":628,"o":"m 397 783 q 282 815 334 783 q 198 898 229 846 q 167 1014 167 951 l 292 1014 q 306 961 292 985 q 344 923 320 938 q 397 908 368 908 q 450 922 426 908 q 489 960 474 936 q 503 1014 503 984 l 628 1014 q 597 898 628 950 q 514 814 566 845 q 397 783 461 783 z "},"˚":{"ha":833,"x_min":278,"x_max":556,"o":"m 417 751 q 319 793 360 751 q 278 892 278 835 q 297 960 278 929 q 347 1010 315 992 q 417 1029 378 1029 q 515 989 474 1029 q 556 892 556 948 q 515 792 556 833 q 417 751 474 751 m 417 828 q 461 846 443 828 q 479 892 479 865 q 461 935 479 917 q 417 953 443 953 q 373 935 391 953 q 354 892 354 917 q 373 846 354 865 q 417 828 391 828 z "},"˜":{"ha":889,"x_min":202,"x_max":708,"o":"m 563 762 q 499 781 536 762 q 425 823 462 800 q 363 858 389 845 q 333 859 338 871 q 332 835 329 847 q 340 802 334 823 l 224 770 q 211 881 202 832 q 254 959 219 931 q 346 988 289 988 q 405 973 371 988 q 473 939 439 958 q 532 905 506 919 q 564 890 557 890 q 579 898 577 890 q 576 919 581 906 q 567 945 572 932 l 686 984 q 697 869 708 919 q 651 790 687 819 q 563 762 616 762 z "},"¯":{"ha":833,"x_min":182,"x_max":651,"o":"m 182 1001 l 651 1001 l 651 793 l 182 793 l 182 1001 z "},"¸":{"ha":910,"x_min":278,"x_max":632,"o":"m 278 -212 l 278 -61 l 367 -61 q 420 -44 394 -61 q 464 -1 447 -27 q 481 51 481 24 l 481 140 l 632 140 l 632 54 q 596 -80 632 -19 q 499 -176 560 -140 q 364 -212 438 -212 l 278 -212 z "},"˛":{"ha":833,"x_min":182,"x_max":536,"o":"m 450 -310 q 315 -274 376 -310 q 218 -177 254 -237 q 182 -43 182 -117 l 182 43 l 333 43 l 333 -46 q 350 -99 333 -73 q 393 -141 367 -124 q 447 -158 419 -158 l 536 -158 l 536 -310 l 450 -310 z "}}}
